<?xml version="1.0" encoding="utf-8"?>
<svg xmlns="http://www.w3.org/2000/svg" xmlns:xlink="http://www.w3.org/1999/xlink" width="600" height="400" viewBox="0 0 2400 1600">
<defs>
  <clipPath id="clip030">
    <rect x="0" y="0" width="2400" height="1600"/>
  </clipPath>
</defs>
<path clip-path="url(#clip030)" d="M0 1600 L2400 1600 L2400 0 L0 0  Z" fill="#ffffff" fill-rule="evenodd" fill-opacity="1"/>
<defs>
  <clipPath id="clip031">
    <rect x="480" y="0" width="1681" height="1600"/>
  </clipPath>
</defs>
<path clip-path="url(#clip030)" d="M177.011 1418.86 L2352.76 1418.86 L2352.76 47.2441 L177.011 47.2441  Z" fill="#ffffff" fill-rule="evenodd" fill-opacity="1"/>
<defs>
  <clipPath id="clip032">
    <rect x="177" y="47" width="2177" height="1373"/>
  </clipPath>
</defs>
<polyline clip-path="url(#clip032)" style="stroke:#000000; stroke-linecap:round; stroke-linejoin:round; stroke-width:2; stroke-opacity:0.06; fill:none" points="224.284,1418.86 224.284,47.2441 "/>
<polyline clip-path="url(#clip032)" style="stroke:#000000; stroke-linecap:round; stroke-linejoin:round; stroke-width:2; stroke-opacity:0.06; fill:none" points="322.13,1418.86 322.13,47.2441 "/>
<polyline clip-path="url(#clip032)" style="stroke:#000000; stroke-linecap:round; stroke-linejoin:round; stroke-width:2; stroke-opacity:0.06; fill:none" points="419.975,1418.86 419.975,47.2441 "/>
<polyline clip-path="url(#clip032)" style="stroke:#000000; stroke-linecap:round; stroke-linejoin:round; stroke-width:2; stroke-opacity:0.06; fill:none" points="615.666,1418.86 615.666,47.2441 "/>
<polyline clip-path="url(#clip032)" style="stroke:#000000; stroke-linecap:round; stroke-linejoin:round; stroke-width:2; stroke-opacity:0.06; fill:none" points="713.511,1418.86 713.511,47.2441 "/>
<polyline clip-path="url(#clip032)" style="stroke:#000000; stroke-linecap:round; stroke-linejoin:round; stroke-width:2; stroke-opacity:0.06; fill:none" points="811.357,1418.86 811.357,47.2441 "/>
<polyline clip-path="url(#clip032)" style="stroke:#000000; stroke-linecap:round; stroke-linejoin:round; stroke-width:2; stroke-opacity:0.06; fill:none" points="909.202,1418.86 909.202,47.2441 "/>
<polyline clip-path="url(#clip032)" style="stroke:#000000; stroke-linecap:round; stroke-linejoin:round; stroke-width:2; stroke-opacity:0.06; fill:none" points="1104.89,1418.86 1104.89,47.2441 "/>
<polyline clip-path="url(#clip032)" style="stroke:#000000; stroke-linecap:round; stroke-linejoin:round; stroke-width:2; stroke-opacity:0.06; fill:none" points="1202.74,1418.86 1202.74,47.2441 "/>
<polyline clip-path="url(#clip032)" style="stroke:#000000; stroke-linecap:round; stroke-linejoin:round; stroke-width:2; stroke-opacity:0.06; fill:none" points="1300.58,1418.86 1300.58,47.2441 "/>
<polyline clip-path="url(#clip032)" style="stroke:#000000; stroke-linecap:round; stroke-linejoin:round; stroke-width:2; stroke-opacity:0.06; fill:none" points="1398.43,1418.86 1398.43,47.2441 "/>
<polyline clip-path="url(#clip032)" style="stroke:#000000; stroke-linecap:round; stroke-linejoin:round; stroke-width:2; stroke-opacity:0.06; fill:none" points="1594.12,1418.86 1594.12,47.2441 "/>
<polyline clip-path="url(#clip032)" style="stroke:#000000; stroke-linecap:round; stroke-linejoin:round; stroke-width:2; stroke-opacity:0.06; fill:none" points="1691.97,1418.86 1691.97,47.2441 "/>
<polyline clip-path="url(#clip032)" style="stroke:#000000; stroke-linecap:round; stroke-linejoin:round; stroke-width:2; stroke-opacity:0.06; fill:none" points="1789.81,1418.86 1789.81,47.2441 "/>
<polyline clip-path="url(#clip032)" style="stroke:#000000; stroke-linecap:round; stroke-linejoin:round; stroke-width:2; stroke-opacity:0.06; fill:none" points="1887.66,1418.86 1887.66,47.2441 "/>
<polyline clip-path="url(#clip032)" style="stroke:#000000; stroke-linecap:round; stroke-linejoin:round; stroke-width:2; stroke-opacity:0.06; fill:none" points="2083.35,1418.86 2083.35,47.2441 "/>
<polyline clip-path="url(#clip032)" style="stroke:#000000; stroke-linecap:round; stroke-linejoin:round; stroke-width:2; stroke-opacity:0.06; fill:none" points="2181.19,1418.86 2181.19,47.2441 "/>
<polyline clip-path="url(#clip032)" style="stroke:#000000; stroke-linecap:round; stroke-linejoin:round; stroke-width:2; stroke-opacity:0.06; fill:none" points="2279.04,1418.86 2279.04,47.2441 "/>
<polyline clip-path="url(#clip032)" style="stroke:#000000; stroke-linecap:round; stroke-linejoin:round; stroke-width:2; stroke-opacity:0.06; fill:none" points="224.284,1418.86 224.284,47.2441 "/>
<polyline clip-path="url(#clip032)" style="stroke:#000000; stroke-linecap:round; stroke-linejoin:round; stroke-width:2; stroke-opacity:0.06; fill:none" points="322.13,1418.86 322.13,47.2441 "/>
<polyline clip-path="url(#clip032)" style="stroke:#000000; stroke-linecap:round; stroke-linejoin:round; stroke-width:2; stroke-opacity:0.06; fill:none" points="419.975,1418.86 419.975,47.2441 "/>
<polyline clip-path="url(#clip032)" style="stroke:#000000; stroke-linecap:round; stroke-linejoin:round; stroke-width:2; stroke-opacity:0.06; fill:none" points="615.666,1418.86 615.666,47.2441 "/>
<polyline clip-path="url(#clip032)" style="stroke:#000000; stroke-linecap:round; stroke-linejoin:round; stroke-width:2; stroke-opacity:0.06; fill:none" points="713.511,1418.86 713.511,47.2441 "/>
<polyline clip-path="url(#clip032)" style="stroke:#000000; stroke-linecap:round; stroke-linejoin:round; stroke-width:2; stroke-opacity:0.06; fill:none" points="811.357,1418.86 811.357,47.2441 "/>
<polyline clip-path="url(#clip032)" style="stroke:#000000; stroke-linecap:round; stroke-linejoin:round; stroke-width:2; stroke-opacity:0.06; fill:none" points="909.202,1418.86 909.202,47.2441 "/>
<polyline clip-path="url(#clip032)" style="stroke:#000000; stroke-linecap:round; stroke-linejoin:round; stroke-width:2; stroke-opacity:0.06; fill:none" points="1104.89,1418.86 1104.89,47.2441 "/>
<polyline clip-path="url(#clip032)" style="stroke:#000000; stroke-linecap:round; stroke-linejoin:round; stroke-width:2; stroke-opacity:0.06; fill:none" points="1202.74,1418.86 1202.74,47.2441 "/>
<polyline clip-path="url(#clip032)" style="stroke:#000000; stroke-linecap:round; stroke-linejoin:round; stroke-width:2; stroke-opacity:0.06; fill:none" points="1300.58,1418.86 1300.58,47.2441 "/>
<polyline clip-path="url(#clip032)" style="stroke:#000000; stroke-linecap:round; stroke-linejoin:round; stroke-width:2; stroke-opacity:0.06; fill:none" points="1398.43,1418.86 1398.43,47.2441 "/>
<polyline clip-path="url(#clip032)" style="stroke:#000000; stroke-linecap:round; stroke-linejoin:round; stroke-width:2; stroke-opacity:0.06; fill:none" points="1594.12,1418.86 1594.12,47.2441 "/>
<polyline clip-path="url(#clip032)" style="stroke:#000000; stroke-linecap:round; stroke-linejoin:round; stroke-width:2; stroke-opacity:0.06; fill:none" points="1691.97,1418.86 1691.97,47.2441 "/>
<polyline clip-path="url(#clip032)" style="stroke:#000000; stroke-linecap:round; stroke-linejoin:round; stroke-width:2; stroke-opacity:0.06; fill:none" points="1789.81,1418.86 1789.81,47.2441 "/>
<polyline clip-path="url(#clip032)" style="stroke:#000000; stroke-linecap:round; stroke-linejoin:round; stroke-width:2; stroke-opacity:0.06; fill:none" points="1887.66,1418.86 1887.66,47.2441 "/>
<polyline clip-path="url(#clip032)" style="stroke:#000000; stroke-linecap:round; stroke-linejoin:round; stroke-width:2; stroke-opacity:0.06; fill:none" points="2083.35,1418.86 2083.35,47.2441 "/>
<polyline clip-path="url(#clip032)" style="stroke:#000000; stroke-linecap:round; stroke-linejoin:round; stroke-width:2; stroke-opacity:0.06; fill:none" points="2181.19,1418.86 2181.19,47.2441 "/>
<polyline clip-path="url(#clip032)" style="stroke:#000000; stroke-linecap:round; stroke-linejoin:round; stroke-width:2; stroke-opacity:0.06; fill:none" points="2279.04,1418.86 2279.04,47.2441 "/>
<polyline clip-path="url(#clip032)" style="stroke:#000000; stroke-linecap:round; stroke-linejoin:round; stroke-width:2; stroke-opacity:0.06; fill:none" points="177.011,1298.36 2352.76,1298.36 "/>
<polyline clip-path="url(#clip032)" style="stroke:#000000; stroke-linecap:round; stroke-linejoin:round; stroke-width:2; stroke-opacity:0.06; fill:none" points="177.011,1223.21 2352.76,1223.21 "/>
<polyline clip-path="url(#clip032)" style="stroke:#000000; stroke-linecap:round; stroke-linejoin:round; stroke-width:2; stroke-opacity:0.06; fill:none" points="177.011,1148.06 2352.76,1148.06 "/>
<polyline clip-path="url(#clip032)" style="stroke:#000000; stroke-linecap:round; stroke-linejoin:round; stroke-width:2; stroke-opacity:0.06; fill:none" points="177.011,1072.91 2352.76,1072.91 "/>
<polyline clip-path="url(#clip032)" style="stroke:#000000; stroke-linecap:round; stroke-linejoin:round; stroke-width:2; stroke-opacity:0.06; fill:none" points="177.011,922.619 2352.76,922.619 "/>
<polyline clip-path="url(#clip032)" style="stroke:#000000; stroke-linecap:round; stroke-linejoin:round; stroke-width:2; stroke-opacity:0.06; fill:none" points="177.011,847.471 2352.76,847.471 "/>
<polyline clip-path="url(#clip032)" style="stroke:#000000; stroke-linecap:round; stroke-linejoin:round; stroke-width:2; stroke-opacity:0.06; fill:none" points="177.011,772.323 2352.76,772.323 "/>
<polyline clip-path="url(#clip032)" style="stroke:#000000; stroke-linecap:round; stroke-linejoin:round; stroke-width:2; stroke-opacity:0.06; fill:none" points="177.011,697.176 2352.76,697.176 "/>
<polyline clip-path="url(#clip032)" style="stroke:#000000; stroke-linecap:round; stroke-linejoin:round; stroke-width:2; stroke-opacity:0.06; fill:none" points="177.011,546.88 2352.76,546.88 "/>
<polyline clip-path="url(#clip032)" style="stroke:#000000; stroke-linecap:round; stroke-linejoin:round; stroke-width:2; stroke-opacity:0.06; fill:none" points="177.011,471.732 2352.76,471.732 "/>
<polyline clip-path="url(#clip032)" style="stroke:#000000; stroke-linecap:round; stroke-linejoin:round; stroke-width:2; stroke-opacity:0.06; fill:none" points="177.011,396.585 2352.76,396.585 "/>
<polyline clip-path="url(#clip032)" style="stroke:#000000; stroke-linecap:round; stroke-linejoin:round; stroke-width:2; stroke-opacity:0.06; fill:none" points="177.011,321.437 2352.76,321.437 "/>
<polyline clip-path="url(#clip032)" style="stroke:#000000; stroke-linecap:round; stroke-linejoin:round; stroke-width:2; stroke-opacity:0.06; fill:none" points="177.011,171.142 2352.76,171.142 "/>
<polyline clip-path="url(#clip032)" style="stroke:#000000; stroke-linecap:round; stroke-linejoin:round; stroke-width:2; stroke-opacity:0.06; fill:none" points="177.011,95.9939 2352.76,95.9939 "/>
<polyline clip-path="url(#clip032)" style="stroke:#000000; stroke-linecap:round; stroke-linejoin:round; stroke-width:2; stroke-opacity:0.06; fill:none" points="177.011,1298.36 2352.76,1298.36 "/>
<polyline clip-path="url(#clip032)" style="stroke:#000000; stroke-linecap:round; stroke-linejoin:round; stroke-width:2; stroke-opacity:0.06; fill:none" points="177.011,1223.21 2352.76,1223.21 "/>
<polyline clip-path="url(#clip032)" style="stroke:#000000; stroke-linecap:round; stroke-linejoin:round; stroke-width:2; stroke-opacity:0.06; fill:none" points="177.011,1148.06 2352.76,1148.06 "/>
<polyline clip-path="url(#clip032)" style="stroke:#000000; stroke-linecap:round; stroke-linejoin:round; stroke-width:2; stroke-opacity:0.06; fill:none" points="177.011,1072.91 2352.76,1072.91 "/>
<polyline clip-path="url(#clip032)" style="stroke:#000000; stroke-linecap:round; stroke-linejoin:round; stroke-width:2; stroke-opacity:0.06; fill:none" points="177.011,922.619 2352.76,922.619 "/>
<polyline clip-path="url(#clip032)" style="stroke:#000000; stroke-linecap:round; stroke-linejoin:round; stroke-width:2; stroke-opacity:0.06; fill:none" points="177.011,847.471 2352.76,847.471 "/>
<polyline clip-path="url(#clip032)" style="stroke:#000000; stroke-linecap:round; stroke-linejoin:round; stroke-width:2; stroke-opacity:0.06; fill:none" points="177.011,772.323 2352.76,772.323 "/>
<polyline clip-path="url(#clip032)" style="stroke:#000000; stroke-linecap:round; stroke-linejoin:round; stroke-width:2; stroke-opacity:0.06; fill:none" points="177.011,697.176 2352.76,697.176 "/>
<polyline clip-path="url(#clip032)" style="stroke:#000000; stroke-linecap:round; stroke-linejoin:round; stroke-width:2; stroke-opacity:0.06; fill:none" points="177.011,546.88 2352.76,546.88 "/>
<polyline clip-path="url(#clip032)" style="stroke:#000000; stroke-linecap:round; stroke-linejoin:round; stroke-width:2; stroke-opacity:0.06; fill:none" points="177.011,471.732 2352.76,471.732 "/>
<polyline clip-path="url(#clip032)" style="stroke:#000000; stroke-linecap:round; stroke-linejoin:round; stroke-width:2; stroke-opacity:0.06; fill:none" points="177.011,396.585 2352.76,396.585 "/>
<polyline clip-path="url(#clip032)" style="stroke:#000000; stroke-linecap:round; stroke-linejoin:round; stroke-width:2; stroke-opacity:0.06; fill:none" points="177.011,321.437 2352.76,321.437 "/>
<polyline clip-path="url(#clip032)" style="stroke:#000000; stroke-linecap:round; stroke-linejoin:round; stroke-width:2; stroke-opacity:0.06; fill:none" points="177.011,171.142 2352.76,171.142 "/>
<polyline clip-path="url(#clip032)" style="stroke:#000000; stroke-linecap:round; stroke-linejoin:round; stroke-width:2; stroke-opacity:0.06; fill:none" points="177.011,95.9939 2352.76,95.9939 "/>
<polyline clip-path="url(#clip032)" style="stroke:#000000; stroke-linecap:round; stroke-linejoin:round; stroke-width:2.8; stroke-opacity:0.4; fill:none" points="517.82,1418.86 517.82,47.2441 "/>
<polyline clip-path="url(#clip032)" style="stroke:#000000; stroke-linecap:round; stroke-linejoin:round; stroke-width:2.8; stroke-opacity:0.4; fill:none" points="1007.05,1418.86 1007.05,47.2441 "/>
<polyline clip-path="url(#clip032)" style="stroke:#000000; stroke-linecap:round; stroke-linejoin:round; stroke-width:2.8; stroke-opacity:0.4; fill:none" points="1496.27,1418.86 1496.27,47.2441 "/>
<polyline clip-path="url(#clip032)" style="stroke:#000000; stroke-linecap:round; stroke-linejoin:round; stroke-width:2.8; stroke-opacity:0.4; fill:none" points="1985.5,1418.86 1985.5,47.2441 "/>
<polyline clip-path="url(#clip032)" style="stroke:#000000; stroke-linecap:round; stroke-linejoin:round; stroke-width:2.8; stroke-opacity:0.4; fill:none" points="517.82,1418.86 517.82,47.2441 "/>
<polyline clip-path="url(#clip032)" style="stroke:#000000; stroke-linecap:round; stroke-linejoin:round; stroke-width:2.8; stroke-opacity:0.4; fill:none" points="1007.05,1418.86 1007.05,47.2441 "/>
<polyline clip-path="url(#clip032)" style="stroke:#000000; stroke-linecap:round; stroke-linejoin:round; stroke-width:2.8; stroke-opacity:0.4; fill:none" points="1496.27,1418.86 1496.27,47.2441 "/>
<polyline clip-path="url(#clip032)" style="stroke:#000000; stroke-linecap:round; stroke-linejoin:round; stroke-width:2.8; stroke-opacity:0.4; fill:none" points="1985.5,1418.86 1985.5,47.2441 "/>
<polyline clip-path="url(#clip032)" style="stroke:#000000; stroke-linecap:round; stroke-linejoin:round; stroke-width:2.8; stroke-opacity:0.4; fill:none" points="177.011,1373.5 2352.76,1373.5 "/>
<polyline clip-path="url(#clip032)" style="stroke:#000000; stroke-linecap:round; stroke-linejoin:round; stroke-width:2.8; stroke-opacity:0.4; fill:none" points="177.011,997.766 2352.76,997.766 "/>
<polyline clip-path="url(#clip032)" style="stroke:#000000; stroke-linecap:round; stroke-linejoin:round; stroke-width:2.8; stroke-opacity:0.4; fill:none" points="177.011,622.028 2352.76,622.028 "/>
<polyline clip-path="url(#clip032)" style="stroke:#000000; stroke-linecap:round; stroke-linejoin:round; stroke-width:2.8; stroke-opacity:0.4; fill:none" points="177.011,246.289 2352.76,246.289 "/>
<polyline clip-path="url(#clip032)" style="stroke:#000000; stroke-linecap:round; stroke-linejoin:round; stroke-width:2.8; stroke-opacity:0.4; fill:none" points="177.011,1373.5 2352.76,1373.5 "/>
<polyline clip-path="url(#clip032)" style="stroke:#000000; stroke-linecap:round; stroke-linejoin:round; stroke-width:2.8; stroke-opacity:0.4; fill:none" points="177.011,997.766 2352.76,997.766 "/>
<polyline clip-path="url(#clip032)" style="stroke:#000000; stroke-linecap:round; stroke-linejoin:round; stroke-width:2.8; stroke-opacity:0.4; fill:none" points="177.011,622.028 2352.76,622.028 "/>
<polyline clip-path="url(#clip032)" style="stroke:#000000; stroke-linecap:round; stroke-linejoin:round; stroke-width:2.8; stroke-opacity:0.4; fill:none" points="177.011,246.289 2352.76,246.289 "/>
<polyline clip-path="url(#clip030)" style="stroke:#000000; stroke-linecap:round; stroke-linejoin:round; stroke-width:4; stroke-opacity:1; fill:none" points="177.011,1418.86 2352.76,1418.86 "/>
<polyline clip-path="url(#clip030)" style="stroke:#000000; stroke-linecap:round; stroke-linejoin:round; stroke-width:4; stroke-opacity:1; fill:none" points="177.011,47.2441 2352.76,47.2441 "/>
<polyline clip-path="url(#clip030)" style="stroke:#000000; stroke-linecap:round; stroke-linejoin:round; stroke-width:4; stroke-opacity:1; fill:none" points="517.82,1418.86 517.82,1399.96 "/>
<polyline clip-path="url(#clip030)" style="stroke:#000000; stroke-linecap:round; stroke-linejoin:round; stroke-width:4; stroke-opacity:1; fill:none" points="1007.05,1418.86 1007.05,1399.96 "/>
<polyline clip-path="url(#clip030)" style="stroke:#000000; stroke-linecap:round; stroke-linejoin:round; stroke-width:4; stroke-opacity:1; fill:none" points="1496.27,1418.86 1496.27,1399.96 "/>
<polyline clip-path="url(#clip030)" style="stroke:#000000; stroke-linecap:round; stroke-linejoin:round; stroke-width:4; stroke-opacity:1; fill:none" points="1985.5,1418.86 1985.5,1399.96 "/>
<polyline clip-path="url(#clip030)" style="stroke:#000000; stroke-linecap:round; stroke-linejoin:round; stroke-width:4; stroke-opacity:1; fill:none" points="517.82,47.2441 517.82,66.1417 "/>
<polyline clip-path="url(#clip030)" style="stroke:#000000; stroke-linecap:round; stroke-linejoin:round; stroke-width:4; stroke-opacity:1; fill:none" points="1007.05,47.2441 1007.05,66.1417 "/>
<polyline clip-path="url(#clip030)" style="stroke:#000000; stroke-linecap:round; stroke-linejoin:round; stroke-width:4; stroke-opacity:1; fill:none" points="1496.27,47.2441 1496.27,66.1417 "/>
<polyline clip-path="url(#clip030)" style="stroke:#000000; stroke-linecap:round; stroke-linejoin:round; stroke-width:4; stroke-opacity:1; fill:none" points="1985.5,47.2441 1985.5,66.1417 "/>
<polyline clip-path="url(#clip030)" style="stroke:#000000; stroke-linecap:round; stroke-linejoin:round; stroke-width:4; stroke-opacity:1; fill:none" points="224.284,1418.86 224.284,1409.41 "/>
<polyline clip-path="url(#clip030)" style="stroke:#000000; stroke-linecap:round; stroke-linejoin:round; stroke-width:4; stroke-opacity:1; fill:none" points="322.13,1418.86 322.13,1409.41 "/>
<polyline clip-path="url(#clip030)" style="stroke:#000000; stroke-linecap:round; stroke-linejoin:round; stroke-width:4; stroke-opacity:1; fill:none" points="419.975,1418.86 419.975,1409.41 "/>
<polyline clip-path="url(#clip030)" style="stroke:#000000; stroke-linecap:round; stroke-linejoin:round; stroke-width:4; stroke-opacity:1; fill:none" points="615.666,1418.86 615.666,1409.41 "/>
<polyline clip-path="url(#clip030)" style="stroke:#000000; stroke-linecap:round; stroke-linejoin:round; stroke-width:4; stroke-opacity:1; fill:none" points="713.511,1418.86 713.511,1409.41 "/>
<polyline clip-path="url(#clip030)" style="stroke:#000000; stroke-linecap:round; stroke-linejoin:round; stroke-width:4; stroke-opacity:1; fill:none" points="811.357,1418.86 811.357,1409.41 "/>
<polyline clip-path="url(#clip030)" style="stroke:#000000; stroke-linecap:round; stroke-linejoin:round; stroke-width:4; stroke-opacity:1; fill:none" points="909.202,1418.86 909.202,1409.41 "/>
<polyline clip-path="url(#clip030)" style="stroke:#000000; stroke-linecap:round; stroke-linejoin:round; stroke-width:4; stroke-opacity:1; fill:none" points="1104.89,1418.86 1104.89,1409.41 "/>
<polyline clip-path="url(#clip030)" style="stroke:#000000; stroke-linecap:round; stroke-linejoin:round; stroke-width:4; stroke-opacity:1; fill:none" points="1202.74,1418.86 1202.74,1409.41 "/>
<polyline clip-path="url(#clip030)" style="stroke:#000000; stroke-linecap:round; stroke-linejoin:round; stroke-width:4; stroke-opacity:1; fill:none" points="1300.58,1418.86 1300.58,1409.41 "/>
<polyline clip-path="url(#clip030)" style="stroke:#000000; stroke-linecap:round; stroke-linejoin:round; stroke-width:4; stroke-opacity:1; fill:none" points="1398.43,1418.86 1398.43,1409.41 "/>
<polyline clip-path="url(#clip030)" style="stroke:#000000; stroke-linecap:round; stroke-linejoin:round; stroke-width:4; stroke-opacity:1; fill:none" points="1594.12,1418.86 1594.12,1409.41 "/>
<polyline clip-path="url(#clip030)" style="stroke:#000000; stroke-linecap:round; stroke-linejoin:round; stroke-width:4; stroke-opacity:1; fill:none" points="1691.97,1418.86 1691.97,1409.41 "/>
<polyline clip-path="url(#clip030)" style="stroke:#000000; stroke-linecap:round; stroke-linejoin:round; stroke-width:4; stroke-opacity:1; fill:none" points="1789.81,1418.86 1789.81,1409.41 "/>
<polyline clip-path="url(#clip030)" style="stroke:#000000; stroke-linecap:round; stroke-linejoin:round; stroke-width:4; stroke-opacity:1; fill:none" points="1887.66,1418.86 1887.66,1409.41 "/>
<polyline clip-path="url(#clip030)" style="stroke:#000000; stroke-linecap:round; stroke-linejoin:round; stroke-width:4; stroke-opacity:1; fill:none" points="2083.35,1418.86 2083.35,1409.41 "/>
<polyline clip-path="url(#clip030)" style="stroke:#000000; stroke-linecap:round; stroke-linejoin:round; stroke-width:4; stroke-opacity:1; fill:none" points="2181.19,1418.86 2181.19,1409.41 "/>
<polyline clip-path="url(#clip030)" style="stroke:#000000; stroke-linecap:round; stroke-linejoin:round; stroke-width:4; stroke-opacity:1; fill:none" points="2279.04,1418.86 2279.04,1409.41 "/>
<polyline clip-path="url(#clip030)" style="stroke:#000000; stroke-linecap:round; stroke-linejoin:round; stroke-width:4; stroke-opacity:1; fill:none" points="224.284,47.2441 224.284,56.6929 "/>
<polyline clip-path="url(#clip030)" style="stroke:#000000; stroke-linecap:round; stroke-linejoin:round; stroke-width:4; stroke-opacity:1; fill:none" points="322.13,47.2441 322.13,56.6929 "/>
<polyline clip-path="url(#clip030)" style="stroke:#000000; stroke-linecap:round; stroke-linejoin:round; stroke-width:4; stroke-opacity:1; fill:none" points="419.975,47.2441 419.975,56.6929 "/>
<polyline clip-path="url(#clip030)" style="stroke:#000000; stroke-linecap:round; stroke-linejoin:round; stroke-width:4; stroke-opacity:1; fill:none" points="615.666,47.2441 615.666,56.6929 "/>
<polyline clip-path="url(#clip030)" style="stroke:#000000; stroke-linecap:round; stroke-linejoin:round; stroke-width:4; stroke-opacity:1; fill:none" points="713.511,47.2441 713.511,56.6929 "/>
<polyline clip-path="url(#clip030)" style="stroke:#000000; stroke-linecap:round; stroke-linejoin:round; stroke-width:4; stroke-opacity:1; fill:none" points="811.357,47.2441 811.357,56.6929 "/>
<polyline clip-path="url(#clip030)" style="stroke:#000000; stroke-linecap:round; stroke-linejoin:round; stroke-width:4; stroke-opacity:1; fill:none" points="909.202,47.2441 909.202,56.6929 "/>
<polyline clip-path="url(#clip030)" style="stroke:#000000; stroke-linecap:round; stroke-linejoin:round; stroke-width:4; stroke-opacity:1; fill:none" points="1104.89,47.2441 1104.89,56.6929 "/>
<polyline clip-path="url(#clip030)" style="stroke:#000000; stroke-linecap:round; stroke-linejoin:round; stroke-width:4; stroke-opacity:1; fill:none" points="1202.74,47.2441 1202.74,56.6929 "/>
<polyline clip-path="url(#clip030)" style="stroke:#000000; stroke-linecap:round; stroke-linejoin:round; stroke-width:4; stroke-opacity:1; fill:none" points="1300.58,47.2441 1300.58,56.6929 "/>
<polyline clip-path="url(#clip030)" style="stroke:#000000; stroke-linecap:round; stroke-linejoin:round; stroke-width:4; stroke-opacity:1; fill:none" points="1398.43,47.2441 1398.43,56.6929 "/>
<polyline clip-path="url(#clip030)" style="stroke:#000000; stroke-linecap:round; stroke-linejoin:round; stroke-width:4; stroke-opacity:1; fill:none" points="1594.12,47.2441 1594.12,56.6929 "/>
<polyline clip-path="url(#clip030)" style="stroke:#000000; stroke-linecap:round; stroke-linejoin:round; stroke-width:4; stroke-opacity:1; fill:none" points="1691.97,47.2441 1691.97,56.6929 "/>
<polyline clip-path="url(#clip030)" style="stroke:#000000; stroke-linecap:round; stroke-linejoin:round; stroke-width:4; stroke-opacity:1; fill:none" points="1789.81,47.2441 1789.81,56.6929 "/>
<polyline clip-path="url(#clip030)" style="stroke:#000000; stroke-linecap:round; stroke-linejoin:round; stroke-width:4; stroke-opacity:1; fill:none" points="1887.66,47.2441 1887.66,56.6929 "/>
<polyline clip-path="url(#clip030)" style="stroke:#000000; stroke-linecap:round; stroke-linejoin:round; stroke-width:4; stroke-opacity:1; fill:none" points="2083.35,47.2441 2083.35,56.6929 "/>
<polyline clip-path="url(#clip030)" style="stroke:#000000; stroke-linecap:round; stroke-linejoin:round; stroke-width:4; stroke-opacity:1; fill:none" points="2181.19,47.2441 2181.19,56.6929 "/>
<polyline clip-path="url(#clip030)" style="stroke:#000000; stroke-linecap:round; stroke-linejoin:round; stroke-width:4; stroke-opacity:1; fill:none" points="2279.04,47.2441 2279.04,56.6929 "/>
<path clip-path="url(#clip030)" d="M462.905 1457.47 L464.56 1447.07 L465.82 1447.07 Q465.968 1447.69 466.215 1447.96 Q466.487 1448.23 467.92 1448.45 Q469.377 1448.68 472.317 1448.68 L484.594 1448.68 Q484.594 1449.84 484.15 1450.45 L477.307 1460.06 Q475.133 1463.1 474.17 1468.71 Q473.601 1472.47 473.626 1477.01 L473.626 1479.58 Q473.626 1482.37 471.279 1482.37 Q468.957 1482.37 468.957 1479.58 Q468.957 1469.92 475.182 1460.56 Q475.849 1459.59 478.295 1456.16 Q480.765 1452.73 480.864 1452.58 L470.39 1452.58 Q465.795 1452.58 465.425 1452.88 Q464.931 1453.32 464.165 1457.47 L462.905 1457.47 Z" fill="#000000" fill-rule="nonzero" fill-opacity="1" /><path clip-path="url(#clip030)" d="M490.424 1480.44 Q489.659 1479.63 489.659 1478.57 Q489.659 1477.5 490.424 1476.74 Q491.19 1475.95 492.351 1475.95 Q493.463 1475.95 494.204 1476.69 Q494.97 1477.41 494.97 1478.59 Q494.97 1479.75 494.155 1480.52 Q493.364 1481.26 492.351 1481.26 Q491.19 1481.26 490.424 1480.44 Z" fill="#000000" fill-rule="nonzero" fill-opacity="1" /><path clip-path="url(#clip030)" d="M502.257 1457.47 L503.912 1447.07 L505.172 1447.07 Q505.321 1447.69 505.568 1447.96 Q505.839 1448.23 507.272 1448.45 Q508.73 1448.68 511.669 1448.68 L523.947 1448.68 Q523.947 1449.84 523.502 1450.45 L516.659 1460.06 Q514.485 1463.1 513.522 1468.71 Q512.954 1472.47 512.979 1477.01 L512.979 1479.58 Q512.979 1482.37 510.632 1482.37 Q508.31 1482.37 508.31 1479.58 Q508.31 1469.92 514.535 1460.56 Q515.202 1459.59 517.647 1456.16 Q520.118 1452.73 520.217 1452.58 L509.742 1452.58 Q505.148 1452.58 504.777 1452.88 Q504.283 1453.32 503.517 1457.47 L502.257 1457.47 Z" fill="#000000" fill-rule="nonzero" fill-opacity="1" /><path clip-path="url(#clip030)" d="M526.837 1458.95 Q526.837 1456.26 527.628 1454.43 Q528.418 1452.58 530.073 1450.75 Q533.112 1447.56 537.509 1447.56 Q539.386 1447.56 541.042 1448.35 Q542.721 1449.15 544.302 1450.95 Q545.908 1452.73 546.872 1456.26 Q547.835 1459.77 547.835 1464.61 Q547.835 1472.44 544.031 1477.41 Q540.251 1482.37 535.137 1482.37 Q531.901 1482.37 529.999 1480.91 Q528.097 1479.43 528.097 1476.91 Q528.097 1475.6 528.838 1475.06 Q529.579 1474.49 530.419 1474.49 Q531.333 1474.49 532.05 1475.11 Q532.766 1475.7 532.766 1476.81 Q532.766 1477.73 532.173 1478.44 Q531.605 1479.14 530.123 1479.14 Q531.58 1480.96 535.088 1480.96 Q536.348 1480.96 537.608 1480.4 Q538.868 1479.8 540.226 1478.39 Q541.61 1476.96 542.45 1473.97 Q543.29 1470.98 543.29 1466.78 L543.29 1465.18 Q541.264 1470.24 536.966 1470.24 Q532.717 1470.24 529.777 1466.98 Q526.837 1463.72 526.837 1458.95 M531.383 1459 Q531.383 1464.02 532.297 1465.87 Q533.853 1469.06 537.015 1469.06 Q540.103 1469.06 541.634 1466.31 Q543.191 1463.55 543.191 1459.97 Q543.191 1455 542.376 1452.83 Q540.869 1448.82 537.509 1448.82 Q534.174 1448.82 532.445 1452.01 Q531.383 1453.89 531.383 1459 Z" fill="#000000" fill-rule="nonzero" fill-opacity="1" /><path clip-path="url(#clip030)" d="M552.529 1473.11 Q552.529 1471.6 553.344 1471.03 Q554.159 1470.44 555.024 1470.44 Q556.185 1470.44 556.852 1471.18 Q557.543 1471.9 557.543 1472.91 Q557.543 1473.92 556.852 1474.66 Q556.185 1475.38 555.024 1475.38 Q554.455 1475.38 554.159 1475.28 Q554.826 1477.6 556.852 1479.28 Q558.902 1480.96 561.595 1480.96 Q564.979 1480.96 567.005 1477.68 Q568.215 1475.55 568.215 1470.74 Q568.215 1466.49 567.301 1464.36 Q565.893 1461.13 563.003 1461.13 Q558.902 1461.13 556.481 1464.66 Q556.185 1465.1 555.839 1465.13 Q555.345 1465.13 555.221 1464.86 Q555.122 1464.56 555.122 1463.79 L555.122 1448.82 Q555.122 1447.61 555.617 1447.61 Q555.814 1447.61 556.234 1447.76 Q559.421 1449.17 562.953 1449.19 Q566.585 1449.19 569.846 1447.71 Q570.093 1447.56 570.241 1447.56 Q570.735 1447.56 570.76 1448.13 Q570.76 1448.33 570.34 1448.92 Q569.944 1449.49 569.08 1450.26 Q568.215 1451 567.104 1451.71 Q565.992 1452.43 564.362 1452.93 Q562.756 1453.39 560.977 1453.39 Q558.853 1453.39 556.679 1452.73 L556.679 1462.58 Q559.297 1460.01 563.102 1460.01 Q567.153 1460.01 569.944 1463.28 Q572.736 1466.54 572.736 1471.08 Q572.736 1475.85 569.426 1479.11 Q566.14 1482.37 561.694 1482.37 Q557.642 1482.37 555.073 1479.48 Q552.529 1476.59 552.529 1473.11 Z" fill="#000000" fill-rule="nonzero" fill-opacity="1" /><path clip-path="url(#clip030)" d="M951.86 1457.47 L953.515 1447.07 L954.775 1447.07 Q954.923 1447.69 955.17 1447.96 Q955.442 1448.23 956.875 1448.45 Q958.332 1448.68 961.272 1448.68 L973.55 1448.68 Q973.55 1449.84 973.105 1450.45 L966.262 1460.06 Q964.088 1463.1 963.125 1468.71 Q962.557 1472.47 962.581 1477.01 L962.581 1479.58 Q962.581 1482.37 960.235 1482.37 Q957.912 1482.37 957.912 1479.58 Q957.912 1469.92 964.138 1460.56 Q964.805 1459.59 967.25 1456.16 Q969.721 1452.73 969.819 1452.58 L959.345 1452.58 Q954.75 1452.58 954.38 1452.88 Q953.886 1453.32 953.12 1457.47 L951.86 1457.47 Z" fill="#000000" fill-rule="nonzero" fill-opacity="1" /><path clip-path="url(#clip030)" d="M979.38 1480.44 Q978.614 1479.63 978.614 1478.57 Q978.614 1477.5 979.38 1476.74 Q980.145 1475.95 981.307 1475.95 Q982.418 1475.95 983.159 1476.69 Q983.925 1477.41 983.925 1478.59 Q983.925 1479.75 983.11 1480.52 Q982.319 1481.26 981.307 1481.26 Q980.145 1481.26 979.38 1480.44 Z" fill="#000000" fill-rule="nonzero" fill-opacity="1" /><path clip-path="url(#clip030)" d="M990.496 1473.63 Q990.496 1467.97 997.784 1464.31 Q994.646 1462.19 994.078 1461.57 Q991.855 1459.1 991.855 1456.01 Q991.855 1452.48 994.523 1450.03 Q997.215 1447.56 1001.02 1447.56 Q1004.65 1447.56 1007.39 1449.66 Q1010.14 1451.76 1010.14 1455.1 Q1010.14 1459.79 1004.01 1462.95 Q1008.06 1465.47 1009.02 1466.54 Q1011.49 1469.28 1011.49 1472.76 Q1011.49 1476.81 1008.38 1479.6 Q1005.27 1482.37 1000.97 1482.37 Q996.771 1482.37 993.634 1479.93 Q990.496 1477.48 990.496 1473.63 M993.016 1473.63 Q993.016 1476.76 995.363 1478.86 Q997.734 1480.96 1001.02 1480.96 Q1004.21 1480.96 1006.58 1479.14 Q1008.97 1477.31 1008.97 1474.59 Q1008.97 1473.53 1008.6 1472.61 Q1008.26 1471.7 1007.54 1470.98 Q1006.85 1470.24 1006.41 1469.92 Q1005.99 1469.58 1005.17 1469.01 L998.945 1465.08 Q993.016 1468.36 993.016 1473.63 M994.078 1454.04 Q994.078 1456.46 996.623 1458.14 L1002.9 1462.19 Q1007.91 1459.25 1007.91 1455.1 Q1007.91 1452.41 1005.86 1450.63 Q1003.81 1448.82 1000.97 1448.82 Q998.179 1448.82 996.129 1450.31 Q994.078 1451.76 994.078 1454.04 Z" fill="#000000" fill-rule="nonzero" fill-opacity="1" /><path clip-path="url(#clip030)" d="M1015.64 1465.08 Q1015.64 1457.64 1017.52 1453.59 Q1020.14 1447.56 1026.32 1447.56 Q1027.63 1447.56 1028.98 1447.94 Q1030.37 1448.28 1032.1 1449.64 Q1033.85 1451 1034.91 1453.22 Q1036.94 1457.52 1036.94 1465.08 Q1036.94 1472.47 1035.06 1476.49 Q1032.32 1482.37 1026.27 1482.37 Q1023.99 1482.37 1021.67 1481.21 Q1019.37 1480.05 1017.92 1477.26 Q1015.64 1473.08 1015.64 1465.08 M1019.84 1464.46 Q1019.84 1472.09 1020.39 1475.13 Q1021 1478.42 1022.68 1479.85 Q1024.39 1481.26 1026.27 1481.26 Q1028.29 1481.26 1029.97 1479.75 Q1031.68 1478.22 1032.2 1474.94 Q1032.76 1471.7 1032.74 1464.46 Q1032.74 1457.42 1032.24 1454.6 Q1031.58 1451.32 1029.8 1450.01 Q1028.05 1448.68 1026.27 1448.68 Q1025.6 1448.68 1024.88 1448.87 Q1024.19 1449.07 1023.18 1449.64 Q1022.17 1450.21 1021.38 1451.62 Q1020.61 1453.02 1020.24 1455.15 Q1019.84 1457.89 1019.84 1464.46 Z" fill="#000000" fill-rule="nonzero" fill-opacity="1" /><path clip-path="url(#clip030)" d="M1040.94 1465.08 Q1040.94 1457.64 1042.82 1453.59 Q1045.44 1447.56 1051.61 1447.56 Q1052.92 1447.56 1054.28 1447.94 Q1055.66 1448.28 1057.39 1449.64 Q1059.15 1451 1060.21 1453.22 Q1062.23 1457.52 1062.23 1465.08 Q1062.23 1472.47 1060.36 1476.49 Q1057.62 1482.37 1051.56 1482.37 Q1049.29 1482.37 1046.97 1481.21 Q1044.67 1480.05 1043.21 1477.26 Q1040.94 1473.08 1040.94 1465.08 M1045.14 1464.46 Q1045.14 1472.09 1045.68 1475.13 Q1046.3 1478.42 1047.98 1479.85 Q1049.69 1481.26 1051.56 1481.26 Q1053.59 1481.26 1055.27 1479.75 Q1056.97 1478.22 1057.49 1474.94 Q1058.06 1471.7 1058.04 1464.46 Q1058.04 1457.42 1057.54 1454.6 Q1056.87 1451.32 1055.1 1450.01 Q1053.34 1448.68 1051.56 1448.68 Q1050.9 1448.68 1050.18 1448.87 Q1049.49 1449.07 1048.47 1449.64 Q1047.46 1450.21 1046.67 1451.62 Q1045.91 1453.02 1045.54 1455.15 Q1045.14 1457.89 1045.14 1464.46 Z" fill="#000000" fill-rule="nonzero" fill-opacity="1" /><path clip-path="url(#clip030)" d="M1441.36 1457.47 L1443.01 1447.07 L1444.27 1447.07 Q1444.42 1447.69 1444.67 1447.96 Q1444.94 1448.23 1446.37 1448.45 Q1447.83 1448.68 1450.77 1448.68 L1463.05 1448.68 Q1463.05 1449.84 1462.6 1450.45 L1455.76 1460.06 Q1453.59 1463.1 1452.62 1468.71 Q1452.06 1472.47 1452.08 1477.01 L1452.08 1479.58 Q1452.08 1482.37 1449.73 1482.37 Q1447.41 1482.37 1447.41 1479.58 Q1447.41 1469.92 1453.64 1460.56 Q1454.3 1459.59 1456.75 1456.16 Q1459.22 1452.73 1459.32 1452.58 L1448.84 1452.58 Q1444.25 1452.58 1443.88 1452.88 Q1443.38 1453.32 1442.62 1457.47 L1441.36 1457.47 Z" fill="#000000" fill-rule="nonzero" fill-opacity="1" /><path clip-path="url(#clip030)" d="M1468.88 1480.44 Q1468.11 1479.63 1468.11 1478.57 Q1468.11 1477.5 1468.88 1476.74 Q1469.64 1475.95 1470.81 1475.95 Q1471.92 1475.95 1472.66 1476.69 Q1473.42 1477.41 1473.42 1478.59 Q1473.42 1479.75 1472.61 1480.52 Q1471.82 1481.26 1470.81 1481.26 Q1469.64 1481.26 1468.88 1480.44 Z" fill="#000000" fill-rule="nonzero" fill-opacity="1" /><path clip-path="url(#clip030)" d="M1479.99 1473.63 Q1479.99 1467.97 1487.28 1464.31 Q1484.15 1462.19 1483.58 1461.57 Q1481.35 1459.1 1481.35 1456.01 Q1481.35 1452.48 1484.02 1450.03 Q1486.71 1447.56 1490.52 1447.56 Q1494.15 1447.56 1496.89 1449.66 Q1499.63 1451.76 1499.63 1455.1 Q1499.63 1459.79 1493.51 1462.95 Q1497.56 1465.47 1498.52 1466.54 Q1500.99 1469.28 1500.99 1472.76 Q1500.99 1476.81 1497.88 1479.6 Q1494.77 1482.37 1490.47 1482.37 Q1486.27 1482.37 1483.13 1479.93 Q1479.99 1477.48 1479.99 1473.63 M1482.51 1473.63 Q1482.51 1476.76 1484.86 1478.86 Q1487.23 1480.96 1490.52 1480.96 Q1493.71 1480.96 1496.08 1479.14 Q1498.47 1477.31 1498.47 1474.59 Q1498.47 1473.53 1498.1 1472.61 Q1497.76 1471.7 1497.04 1470.98 Q1496.35 1470.24 1495.9 1469.92 Q1495.48 1469.58 1494.67 1469.01 L1488.44 1465.08 Q1482.51 1468.36 1482.51 1473.63 M1483.58 1454.04 Q1483.58 1456.46 1486.12 1458.14 L1492.4 1462.19 Q1497.41 1459.25 1497.41 1455.1 Q1497.41 1452.41 1495.36 1450.63 Q1493.31 1448.82 1490.47 1448.82 Q1487.68 1448.82 1485.63 1450.31 Q1483.58 1451.76 1483.58 1454.04 Z" fill="#000000" fill-rule="nonzero" fill-opacity="1" /><path clip-path="url(#clip030)" d="M1505.14 1465.08 Q1505.14 1457.64 1507.02 1453.59 Q1509.64 1447.56 1515.81 1447.56 Q1517.12 1447.56 1518.48 1447.94 Q1519.87 1448.28 1521.6 1449.64 Q1523.35 1451 1524.41 1453.22 Q1526.44 1457.52 1526.44 1465.08 Q1526.44 1472.47 1524.56 1476.49 Q1521.82 1482.37 1515.77 1482.37 Q1513.49 1482.37 1511.17 1481.21 Q1508.87 1480.05 1507.42 1477.26 Q1505.14 1473.08 1505.14 1465.08 M1509.34 1464.46 Q1509.34 1472.09 1509.89 1475.13 Q1510.5 1478.42 1512.18 1479.85 Q1513.89 1481.26 1515.77 1481.26 Q1517.79 1481.26 1519.47 1479.75 Q1521.18 1478.22 1521.69 1474.94 Q1522.26 1471.7 1522.24 1464.46 Q1522.24 1457.42 1521.74 1454.6 Q1521.08 1451.32 1519.3 1450.01 Q1517.54 1448.68 1515.77 1448.68 Q1515.1 1448.68 1514.38 1448.87 Q1513.69 1449.07 1512.68 1449.64 Q1511.66 1450.21 1510.87 1451.62 Q1510.11 1453.02 1509.74 1455.15 Q1509.34 1457.89 1509.34 1464.46 Z" fill="#000000" fill-rule="nonzero" fill-opacity="1" /><path clip-path="url(#clip030)" d="M1530.98 1473.11 Q1530.98 1471.6 1531.8 1471.03 Q1532.61 1470.44 1533.48 1470.44 Q1534.64 1470.44 1535.31 1471.18 Q1536 1471.9 1536 1472.91 Q1536 1473.92 1535.31 1474.66 Q1534.64 1475.38 1533.48 1475.38 Q1532.91 1475.38 1532.61 1475.28 Q1533.28 1477.6 1535.31 1479.28 Q1537.36 1480.96 1540.05 1480.96 Q1543.43 1480.96 1545.46 1477.68 Q1546.67 1475.55 1546.67 1470.74 Q1546.67 1466.49 1545.76 1464.36 Q1544.35 1461.13 1541.46 1461.13 Q1537.36 1461.13 1534.94 1464.66 Q1534.64 1465.1 1534.29 1465.13 Q1533.8 1465.13 1533.68 1464.86 Q1533.58 1464.56 1533.58 1463.79 L1533.58 1448.82 Q1533.58 1447.61 1534.07 1447.61 Q1534.27 1447.61 1534.69 1447.76 Q1537.87 1449.17 1541.41 1449.19 Q1545.04 1449.19 1548.3 1447.71 Q1548.55 1447.56 1548.69 1447.56 Q1549.19 1447.56 1549.21 1448.13 Q1549.21 1448.33 1548.79 1448.92 Q1548.4 1449.49 1547.53 1450.26 Q1546.67 1451 1545.56 1451.71 Q1544.45 1452.43 1542.82 1452.93 Q1541.21 1453.39 1539.43 1453.39 Q1537.31 1453.39 1535.13 1452.73 L1535.13 1462.58 Q1537.75 1460.01 1541.56 1460.01 Q1545.61 1460.01 1548.4 1463.28 Q1551.19 1466.54 1551.19 1471.08 Q1551.19 1475.85 1547.88 1479.11 Q1544.59 1482.37 1540.15 1482.37 Q1536.1 1482.37 1533.53 1479.48 Q1530.98 1476.59 1530.98 1473.11 Z" fill="#000000" fill-rule="nonzero" fill-opacity="1" /><path clip-path="url(#clip030)" d="M1930.31 1457.47 L1931.97 1447.07 L1933.23 1447.07 Q1933.38 1447.69 1933.62 1447.96 Q1933.9 1448.23 1935.33 1448.45 Q1936.79 1448.68 1939.73 1448.68 L1952 1448.68 Q1952 1449.84 1951.56 1450.45 L1944.72 1460.06 Q1942.54 1463.1 1941.58 1468.71 Q1941.01 1472.47 1941.04 1477.01 L1941.04 1479.58 Q1941.04 1482.37 1938.69 1482.37 Q1936.37 1482.37 1936.37 1479.58 Q1936.37 1469.92 1942.59 1460.56 Q1943.26 1459.59 1945.7 1456.16 Q1948.17 1452.73 1948.27 1452.58 L1937.8 1452.58 Q1933.2 1452.58 1932.83 1452.88 Q1932.34 1453.32 1931.57 1457.47 L1930.31 1457.47 Z" fill="#000000" fill-rule="nonzero" fill-opacity="1" /><path clip-path="url(#clip030)" d="M1957.83 1480.44 Q1957.07 1479.63 1957.07 1478.57 Q1957.07 1477.5 1957.83 1476.74 Q1958.6 1475.95 1959.76 1475.95 Q1960.87 1475.95 1961.61 1476.69 Q1962.38 1477.41 1962.38 1478.59 Q1962.38 1479.75 1961.56 1480.52 Q1960.77 1481.26 1959.76 1481.26 Q1958.6 1481.26 1957.83 1480.44 Z" fill="#000000" fill-rule="nonzero" fill-opacity="1" /><path clip-path="url(#clip030)" d="M1968.95 1473.63 Q1968.95 1467.97 1976.24 1464.31 Q1973.1 1462.19 1972.53 1461.57 Q1970.31 1459.1 1970.31 1456.01 Q1970.31 1452.48 1972.98 1450.03 Q1975.67 1447.56 1979.47 1447.56 Q1983.11 1447.56 1985.85 1449.66 Q1988.59 1451.76 1988.59 1455.1 Q1988.59 1459.79 1982.46 1462.95 Q1986.51 1465.47 1987.48 1466.54 Q1989.95 1469.28 1989.95 1472.76 Q1989.95 1476.81 1986.84 1479.6 Q1983.72 1482.37 1979.42 1482.37 Q1975.22 1482.37 1972.09 1479.93 Q1968.95 1477.48 1968.95 1473.63 M1971.47 1473.63 Q1971.47 1476.76 1973.82 1478.86 Q1976.19 1480.96 1979.47 1480.96 Q1982.66 1480.96 1985.03 1479.14 Q1987.43 1477.31 1987.43 1474.59 Q1987.43 1473.53 1987.06 1472.61 Q1986.71 1471.7 1986 1470.98 Q1985.3 1470.24 1984.86 1469.92 Q1984.44 1469.58 1983.62 1469.01 L1977.4 1465.08 Q1971.47 1468.36 1971.47 1473.63 M1972.53 1454.04 Q1972.53 1456.46 1975.08 1458.14 L1981.35 1462.19 Q1986.37 1459.25 1986.37 1455.1 Q1986.37 1452.41 1984.32 1450.63 Q1982.27 1448.82 1979.42 1448.82 Q1976.63 1448.82 1974.58 1450.31 Q1972.53 1451.76 1972.53 1454.04 Z" fill="#000000" fill-rule="nonzero" fill-opacity="1" /><path clip-path="url(#clip030)" d="M1996.62 1452.38 L1996.62 1450.8 Q2002.7 1450.8 2005.83 1447.56 Q2006.7 1447.56 2006.85 1447.76 Q2006.99 1447.96 2006.99 1448.87 L2006.99 1477.26 Q2006.99 1478.76 2007.73 1479.23 Q2008.48 1479.7 2011.71 1479.7 L2013.32 1479.7 L2013.32 1481.26 Q2011.54 1481.11 2005.12 1481.11 Q1998.69 1481.11 1996.94 1481.26 L1996.94 1479.7 L1998.54 1479.7 Q2001.73 1479.7 2002.5 1479.26 Q2003.26 1478.79 2003.26 1477.26 L2003.26 1451.05 Q2000.62 1452.38 1996.62 1452.38 Z" fill="#000000" fill-rule="nonzero" fill-opacity="1" /><path clip-path="url(#clip030)" d="M2019.39 1465.08 Q2019.39 1457.64 2021.27 1453.59 Q2023.89 1447.56 2030.07 1447.56 Q2031.38 1447.56 2032.73 1447.94 Q2034.12 1448.28 2035.85 1449.64 Q2037.6 1451 2038.66 1453.22 Q2040.69 1457.52 2040.69 1465.08 Q2040.69 1472.47 2038.81 1476.49 Q2036.07 1482.37 2030.02 1482.37 Q2027.74 1482.37 2025.42 1481.21 Q2023.12 1480.05 2021.67 1477.26 Q2019.39 1473.08 2019.39 1465.08 M2023.59 1464.46 Q2023.59 1472.09 2024.14 1475.13 Q2024.76 1478.42 2026.43 1479.85 Q2028.14 1481.26 2030.02 1481.26 Q2032.04 1481.26 2033.72 1479.75 Q2035.43 1478.22 2035.95 1474.94 Q2036.51 1471.7 2036.49 1464.46 Q2036.49 1457.42 2036 1454.6 Q2035.33 1451.32 2033.55 1450.01 Q2031.8 1448.68 2030.02 1448.68 Q2029.35 1448.68 2028.63 1448.87 Q2027.94 1449.07 2026.93 1449.64 Q2025.92 1450.21 2025.13 1451.62 Q2024.36 1453.02 2023.99 1455.15 Q2023.59 1457.89 2023.59 1464.46 Z" fill="#000000" fill-rule="nonzero" fill-opacity="1" /><path clip-path="url(#clip030)" d="M1283.89 1514.74 Q1283.89 1515.65 1283.51 1517.41 Q1282.28 1522.36 1277.67 1525.77 Q1276.9 1526.4 1275.53 1527.21 Q1277.18 1528.3 1278.62 1530.3 Q1280.77 1533.6 1280.77 1538.07 Q1280.77 1540.14 1280.2 1542.67 Q1278.62 1548.54 1273.07 1552.75 Q1267.48 1556.86 1260.84 1556.86 Q1257.26 1556.86 1254.8 1554.96 Q1252.38 1553.03 1251.43 1549.8 L1246.55 1569.51 Q1246.44 1570 1245.81 1570 L1245.46 1570 Q1244.72 1570 1244.72 1569.16 L1255.82 1524.89 Q1256.56 1521.9 1257.75 1519.09 Q1258.95 1516.28 1260.6 1513.75 Q1262.28 1511.22 1264.22 1509.36 Q1266.15 1507.46 1268.54 1506.37 Q1270.93 1505.25 1273.46 1505.25 Q1278.76 1505.25 1281.78 1508.87 Q1283.89 1511.43 1283.89 1514.74 M1279.85 1513.47 Q1279.85 1511.29 1278.97 1509.78 Q1277.18 1506.9 1273.39 1506.9 Q1271.1 1506.9 1268.93 1507.96 Q1266.78 1508.97 1265.06 1510.73 Q1263.34 1512.49 1261.86 1514.88 Q1260.39 1517.27 1259.3 1519.87 Q1258.24 1522.43 1257.54 1525.24 L1253.22 1542.67 Q1252.8 1544.53 1252.8 1546.18 Q1252.8 1550.12 1254.98 1552.68 Q1257.16 1555.25 1260.91 1555.25 Q1265.9 1555.25 1270.19 1551.52 Q1273.91 1548.18 1275.46 1542.32 Q1276.34 1538.63 1276.34 1536.06 Q1276.34 1533.25 1275.32 1531.07 Q1274.58 1529.32 1273.14 1528.26 Q1270.47 1529.21 1267.77 1529.21 Q1266.47 1529.21 1265.76 1529.18 Q1265.1 1529.14 1264.11 1529 Q1263.16 1528.86 1262.71 1528.47 Q1262.28 1528.09 1262.28 1527.49 Q1262.28 1527.14 1262.36 1527 Q1262.5 1526.44 1262.95 1526.05 Q1263.41 1525.66 1263.94 1525.49 Q1264.46 1525.28 1265.34 1525.17 Q1266.26 1525.07 1266.85 1525.07 Q1267.45 1525.03 1268.47 1525.03 Q1270.86 1525.03 1273.28 1525.98 Q1274.2 1525.49 1275.18 1524.61 Q1278.31 1521.69 1279.36 1517.06 Q1279.85 1515.33 1279.85 1513.47 M1271 1527.07 Q1269.52 1526.68 1268.4 1526.68 Q1264.29 1526.68 1264.08 1527.35 Q1264.08 1527.42 1264.22 1527.49 Q1264.36 1527.53 1264.67 1527.56 Q1265.03 1527.56 1265.31 1527.6 Q1265.62 1527.63 1266.15 1527.63 Q1266.68 1527.63 1266.96 1527.63 Q1267.27 1527.63 1267.84 1527.63 Q1269.24 1527.63 1271 1527.07 Z" fill="#000000" fill-rule="nonzero" fill-opacity="1" /><polyline clip-path="url(#clip030)" style="stroke:#000000; stroke-linecap:round; stroke-linejoin:round; stroke-width:4; stroke-opacity:1; fill:none" points="177.011,1418.86 177.011,47.2441 "/>
<polyline clip-path="url(#clip030)" style="stroke:#000000; stroke-linecap:round; stroke-linejoin:round; stroke-width:4; stroke-opacity:1; fill:none" points="2352.76,1418.86 2352.76,47.2441 "/>
<polyline clip-path="url(#clip030)" style="stroke:#000000; stroke-linecap:round; stroke-linejoin:round; stroke-width:4; stroke-opacity:1; fill:none" points="177.011,1373.5 195.908,1373.5 "/>
<polyline clip-path="url(#clip030)" style="stroke:#000000; stroke-linecap:round; stroke-linejoin:round; stroke-width:4; stroke-opacity:1; fill:none" points="177.011,997.766 195.908,997.766 "/>
<polyline clip-path="url(#clip030)" style="stroke:#000000; stroke-linecap:round; stroke-linejoin:round; stroke-width:4; stroke-opacity:1; fill:none" points="177.011,622.028 195.908,622.028 "/>
<polyline clip-path="url(#clip030)" style="stroke:#000000; stroke-linecap:round; stroke-linejoin:round; stroke-width:4; stroke-opacity:1; fill:none" points="177.011,246.289 195.908,246.289 "/>
<polyline clip-path="url(#clip030)" style="stroke:#000000; stroke-linecap:round; stroke-linejoin:round; stroke-width:4; stroke-opacity:1; fill:none" points="2352.76,1373.5 2333.86,1373.5 "/>
<polyline clip-path="url(#clip030)" style="stroke:#000000; stroke-linecap:round; stroke-linejoin:round; stroke-width:4; stroke-opacity:1; fill:none" points="2352.76,997.766 2333.86,997.766 "/>
<polyline clip-path="url(#clip030)" style="stroke:#000000; stroke-linecap:round; stroke-linejoin:round; stroke-width:4; stroke-opacity:1; fill:none" points="2352.76,622.028 2333.86,622.028 "/>
<polyline clip-path="url(#clip030)" style="stroke:#000000; stroke-linecap:round; stroke-linejoin:round; stroke-width:4; stroke-opacity:1; fill:none" points="2352.76,246.289 2333.86,246.289 "/>
<polyline clip-path="url(#clip030)" style="stroke:#000000; stroke-linecap:round; stroke-linejoin:round; stroke-width:4; stroke-opacity:1; fill:none" points="177.011,1298.36 186.46,1298.36 "/>
<polyline clip-path="url(#clip030)" style="stroke:#000000; stroke-linecap:round; stroke-linejoin:round; stroke-width:4; stroke-opacity:1; fill:none" points="177.011,1223.21 186.46,1223.21 "/>
<polyline clip-path="url(#clip030)" style="stroke:#000000; stroke-linecap:round; stroke-linejoin:round; stroke-width:4; stroke-opacity:1; fill:none" points="177.011,1148.06 186.46,1148.06 "/>
<polyline clip-path="url(#clip030)" style="stroke:#000000; stroke-linecap:round; stroke-linejoin:round; stroke-width:4; stroke-opacity:1; fill:none" points="177.011,1072.91 186.46,1072.91 "/>
<polyline clip-path="url(#clip030)" style="stroke:#000000; stroke-linecap:round; stroke-linejoin:round; stroke-width:4; stroke-opacity:1; fill:none" points="177.011,922.619 186.46,922.619 "/>
<polyline clip-path="url(#clip030)" style="stroke:#000000; stroke-linecap:round; stroke-linejoin:round; stroke-width:4; stroke-opacity:1; fill:none" points="177.011,847.471 186.46,847.471 "/>
<polyline clip-path="url(#clip030)" style="stroke:#000000; stroke-linecap:round; stroke-linejoin:round; stroke-width:4; stroke-opacity:1; fill:none" points="177.011,772.323 186.46,772.323 "/>
<polyline clip-path="url(#clip030)" style="stroke:#000000; stroke-linecap:round; stroke-linejoin:round; stroke-width:4; stroke-opacity:1; fill:none" points="177.011,697.176 186.46,697.176 "/>
<polyline clip-path="url(#clip030)" style="stroke:#000000; stroke-linecap:round; stroke-linejoin:round; stroke-width:4; stroke-opacity:1; fill:none" points="177.011,546.88 186.46,546.88 "/>
<polyline clip-path="url(#clip030)" style="stroke:#000000; stroke-linecap:round; stroke-linejoin:round; stroke-width:4; stroke-opacity:1; fill:none" points="177.011,471.732 186.46,471.732 "/>
<polyline clip-path="url(#clip030)" style="stroke:#000000; stroke-linecap:round; stroke-linejoin:round; stroke-width:4; stroke-opacity:1; fill:none" points="177.011,396.585 186.46,396.585 "/>
<polyline clip-path="url(#clip030)" style="stroke:#000000; stroke-linecap:round; stroke-linejoin:round; stroke-width:4; stroke-opacity:1; fill:none" points="177.011,321.437 186.46,321.437 "/>
<polyline clip-path="url(#clip030)" style="stroke:#000000; stroke-linecap:round; stroke-linejoin:round; stroke-width:4; stroke-opacity:1; fill:none" points="177.011,171.142 186.46,171.142 "/>
<polyline clip-path="url(#clip030)" style="stroke:#000000; stroke-linecap:round; stroke-linejoin:round; stroke-width:4; stroke-opacity:1; fill:none" points="177.011,95.9939 186.46,95.9939 "/>
<polyline clip-path="url(#clip030)" style="stroke:#000000; stroke-linecap:round; stroke-linejoin:round; stroke-width:4; stroke-opacity:1; fill:none" points="2352.76,1298.36 2343.31,1298.36 "/>
<polyline clip-path="url(#clip030)" style="stroke:#000000; stroke-linecap:round; stroke-linejoin:round; stroke-width:4; stroke-opacity:1; fill:none" points="2352.76,1223.21 2343.31,1223.21 "/>
<polyline clip-path="url(#clip030)" style="stroke:#000000; stroke-linecap:round; stroke-linejoin:round; stroke-width:4; stroke-opacity:1; fill:none" points="2352.76,1148.06 2343.31,1148.06 "/>
<polyline clip-path="url(#clip030)" style="stroke:#000000; stroke-linecap:round; stroke-linejoin:round; stroke-width:4; stroke-opacity:1; fill:none" points="2352.76,1072.91 2343.31,1072.91 "/>
<polyline clip-path="url(#clip030)" style="stroke:#000000; stroke-linecap:round; stroke-linejoin:round; stroke-width:4; stroke-opacity:1; fill:none" points="2352.76,922.619 2343.31,922.619 "/>
<polyline clip-path="url(#clip030)" style="stroke:#000000; stroke-linecap:round; stroke-linejoin:round; stroke-width:4; stroke-opacity:1; fill:none" points="2352.76,847.471 2343.31,847.471 "/>
<polyline clip-path="url(#clip030)" style="stroke:#000000; stroke-linecap:round; stroke-linejoin:round; stroke-width:4; stroke-opacity:1; fill:none" points="2352.76,772.323 2343.31,772.323 "/>
<polyline clip-path="url(#clip030)" style="stroke:#000000; stroke-linecap:round; stroke-linejoin:round; stroke-width:4; stroke-opacity:1; fill:none" points="2352.76,697.176 2343.31,697.176 "/>
<polyline clip-path="url(#clip030)" style="stroke:#000000; stroke-linecap:round; stroke-linejoin:round; stroke-width:4; stroke-opacity:1; fill:none" points="2352.76,546.88 2343.31,546.88 "/>
<polyline clip-path="url(#clip030)" style="stroke:#000000; stroke-linecap:round; stroke-linejoin:round; stroke-width:4; stroke-opacity:1; fill:none" points="2352.76,471.732 2343.31,471.732 "/>
<polyline clip-path="url(#clip030)" style="stroke:#000000; stroke-linecap:round; stroke-linejoin:round; stroke-width:4; stroke-opacity:1; fill:none" points="2352.76,396.585 2343.31,396.585 "/>
<polyline clip-path="url(#clip030)" style="stroke:#000000; stroke-linecap:round; stroke-linejoin:round; stroke-width:4; stroke-opacity:1; fill:none" points="2352.76,321.437 2343.31,321.437 "/>
<polyline clip-path="url(#clip030)" style="stroke:#000000; stroke-linecap:round; stroke-linejoin:round; stroke-width:4; stroke-opacity:1; fill:none" points="2352.76,171.142 2343.31,171.142 "/>
<polyline clip-path="url(#clip030)" style="stroke:#000000; stroke-linecap:round; stroke-linejoin:round; stroke-width:4; stroke-opacity:1; fill:none" points="2352.76,95.9939 2343.31,95.9939 "/>
<path clip-path="url(#clip030)" d="M120.803 1390.78 Q120.803 1389.87 120.878 1389.6 Q120.976 1389.33 121.372 1388.91 L131.08 1378.09 Q136.391 1372.11 136.391 1366.9 Q136.391 1363.51 134.613 1361.09 Q132.859 1358.67 129.623 1358.67 Q127.399 1358.67 125.522 1360.03 Q123.644 1361.39 122.78 1363.81 Q122.928 1363.76 123.447 1363.76 Q124.707 1363.76 125.398 1364.55 Q126.115 1365.34 126.115 1366.4 Q126.115 1367.76 125.225 1368.43 Q124.361 1369.07 123.496 1369.07 Q123.15 1369.07 122.681 1369 Q122.236 1368.92 121.52 1368.23 Q120.803 1367.51 120.803 1366.25 Q120.803 1362.72 123.471 1359.91 Q126.164 1357.09 130.265 1357.09 Q134.909 1357.09 137.948 1359.86 Q141.011 1362.6 141.011 1366.9 Q141.011 1368.4 140.541 1369.79 Q140.097 1371.15 139.479 1372.21 Q138.886 1373.27 137.256 1374.97 Q135.625 1376.68 134.316 1377.89 Q133.007 1379.1 130.067 1381.67 L124.707 1386.88 L133.822 1386.88 Q138.269 1386.88 138.615 1386.49 Q139.109 1385.77 139.726 1381.99 L141.011 1381.99 L139.578 1390.78 L120.803 1390.78 Z" fill="#000000" fill-rule="nonzero" fill-opacity="1" /><path clip-path="url(#clip030)" d="M120.013 1008.23 Q120.013 1006.72 120.878 1006 Q121.742 1005.29 122.854 1005.29 Q124.015 1005.29 124.83 1006.05 Q125.67 1006.8 125.67 1008.1 Q125.67 1009.51 124.682 1010.3 Q123.718 1011.09 122.335 1010.9 Q123.546 1012.92 125.769 1013.84 Q128.017 1014.75 130.092 1014.75 Q132.266 1014.75 134.02 1012.87 Q135.798 1011 135.798 1006.4 Q135.798 1002.5 134.267 1000.25 Q132.76 998.001 129.771 998.001 L127.547 998.001 Q126.782 998.001 126.559 997.927 Q126.337 997.853 126.337 997.433 Q126.337 996.939 127.103 996.84 Q127.869 996.84 129.079 996.692 Q132.019 996.593 133.575 994.049 Q134.983 991.677 134.983 988.293 Q134.983 985.205 133.501 983.92 Q132.043 982.611 130.141 982.611 Q128.363 982.611 126.411 983.352 Q124.46 984.093 123.397 985.748 Q126.535 985.748 126.535 988.293 Q126.535 989.404 125.818 990.145 Q125.127 990.862 123.965 990.862 Q122.854 990.862 122.113 990.17 Q121.372 989.454 121.372 988.243 Q121.372 985.353 123.941 983.352 Q126.535 981.351 130.339 981.351 Q134.094 981.351 136.861 983.327 Q139.652 985.304 139.652 988.342 Q139.652 991.331 137.676 993.777 Q135.7 996.222 132.562 997.235 Q136.416 998.001 138.713 1000.62 Q141.011 1003.21 141.011 1006.4 Q141.011 1010.35 137.898 1013.27 Q134.786 1016.16 130.24 1016.16 Q126.041 1016.16 123.027 1013.89 Q120.013 1011.61 120.013 1008.23 Z" fill="#000000" fill-rule="nonzero" fill-opacity="1" /><path clip-path="url(#clip030)" d="M118.58 630.958 L118.58 629.402 L134.119 605.662 Q134.514 605.044 135.131 605.069 Q135.7 605.069 135.823 605.291 Q135.947 605.514 135.947 606.378 L135.947 629.402 L141.011 629.402 L141.011 630.958 L135.947 630.958 L135.947 635.355 Q135.947 636.813 136.539 637.282 Q137.157 637.752 139.776 637.752 L140.838 637.752 L140.838 639.308 Q138.763 639.16 133.97 639.16 Q129.203 639.16 127.128 639.308 L127.128 637.752 L128.19 637.752 Q130.808 637.752 131.426 637.307 Q132.043 636.838 132.043 635.355 L132.043 630.958 L118.58 630.958 M120.013 629.402 L132.34 629.402 L132.34 610.528 L120.013 629.402 Z" fill="#000000" fill-rule="nonzero" fill-opacity="1" /><path clip-path="url(#clip030)" d="M120.803 255.417 Q120.803 253.91 121.619 253.342 Q122.434 252.749 123.298 252.749 Q124.46 252.749 125.127 253.49 Q125.818 254.207 125.818 255.22 Q125.818 256.232 125.127 256.974 Q124.46 257.69 123.298 257.69 Q122.73 257.69 122.434 257.591 Q123.101 259.913 125.127 261.593 Q127.177 263.273 129.87 263.273 Q133.254 263.273 135.28 259.987 Q136.49 257.863 136.49 253.046 Q136.49 248.797 135.576 246.672 Q134.168 243.436 131.278 243.436 Q127.177 243.436 124.756 246.969 Q124.46 247.413 124.114 247.438 Q123.62 247.438 123.496 247.166 Q123.397 246.87 123.397 246.104 L123.397 231.134 Q123.397 229.923 123.891 229.923 Q124.089 229.923 124.509 230.072 Q127.696 231.48 131.228 231.504 Q134.86 231.504 138.121 230.022 Q138.368 229.874 138.516 229.874 Q139.01 229.874 139.035 230.442 Q139.035 230.64 138.615 231.233 Q138.219 231.801 137.355 232.567 Q136.49 233.308 135.378 234.024 Q134.267 234.741 132.636 235.235 Q131.031 235.704 129.252 235.704 Q127.128 235.704 124.954 235.037 L124.954 244.894 Q127.572 242.324 131.376 242.324 Q135.428 242.324 138.219 245.585 Q141.011 248.846 141.011 253.392 Q141.011 258.159 137.701 261.42 Q134.415 264.681 129.968 264.681 Q125.917 264.681 123.348 261.791 Q120.803 258.9 120.803 255.417 Z" fill="#000000" fill-rule="nonzero" fill-opacity="1" /><path clip-path="url(#clip030)" d="M20.8897 736.44 Q21.3815 736.44 22.541 736.756 L50.0155 743.642 Q56.1287 745.153 60.4151 750.072 Q64.7014 754.955 64.7014 760.506 Q64.7014 763.844 62.9095 765.987 Q61.1529 768.13 58.4476 768.13 Q56.0585 768.13 54.8991 766.865 Q53.7748 765.601 53.7748 764.09 Q53.7748 763.598 53.9153 763.071 Q54.0559 762.544 54.6531 761.982 Q55.2504 761.42 56.2693 761.42 Q57.9206 761.42 59.2205 762.86 Q59.8178 763.563 59.9583 764.23 Q60.0988 764.863 60.0988 765.952 Q61.0826 765.53 61.7501 764.757 Q62.4177 763.984 62.6636 763.106 Q62.9447 762.228 63.0149 761.666 Q63.1203 761.068 63.1203 760.506 Q63.1203 756.009 58.5881 752.566 Q57.2179 751.547 55.8477 750.809 Q54.5126 750.036 52.8613 749.474 Q51.2452 748.912 50.3668 748.666 Q49.4885 748.385 47.4859 747.893 Q50.7533 751.161 50.7533 755.166 Q50.7533 756.852 50.2966 758.363 Q49.8398 759.839 48.8912 761.139 Q47.9075 762.439 46.1859 763.211 Q44.4644 763.949 42.1807 763.949 Q39.7565 763.949 36.4539 763.001 Q33.1513 762.052 27.0732 759.768 Q23.6652 758.539 22.014 758.539 Q21.2059 758.539 20.714 758.714 Q20.187 758.89 20.0113 759.241 Q19.8005 759.593 19.7654 759.804 Q19.7303 759.979 19.7303 760.331 Q19.7303 762.403 21.8383 764.336 Q23.9463 766.268 28.6542 767.603 Q29.5326 767.884 29.7434 768.06 Q29.9542 768.236 29.9542 768.763 Q29.919 769.641 29.2164 769.641 Q28.9353 769.641 27.8461 769.325 Q26.7219 769.009 25.0706 768.271 Q23.3842 767.498 21.8734 766.444 Q20.3275 765.39 19.2384 763.738 Q18.1493 762.052 18.1493 760.12 Q18.1493 757.485 19.8708 755.869 Q21.5572 754.217 24.0517 754.217 Q25.0706 754.217 25.9841 754.498 Q26.8624 754.744 29.2164 755.658 Q38.7024 759.347 43.3401 759.347 Q44.4644 759.347 45.413 759.171 Q46.3265 758.96 47.2399 758.504 Q48.1183 758.047 48.6453 757.133 Q49.1371 756.185 49.1371 754.885 Q49.1371 753.234 48.3642 751.688 Q47.5561 750.107 46.467 749.123 Q45.3778 748.104 44.4644 747.507 Q43.5158 746.874 43.0239 746.734 L30.0947 743.502 L24.3328 742.061 Q21.2059 741.393 20.4329 741.077 Q19.6951 740.656 19.3087 739.918 Q18.9222 739.18 18.9222 738.548 Q18.9222 737.669 19.4492 737.072 Q19.9762 736.44 20.8897 736.44 Z" fill="#000000" fill-rule="nonzero" fill-opacity="1" /><path clip-path="url(#clip030)" d="M55.7416 729.086 L54.1676 729.086 Q54.1676 723.036 50.9458 719.913 Q50.9458 719.052 51.1426 718.904 Q51.3393 718.757 52.2493 718.757 L80.5073 718.757 Q82.0075 718.757 82.4748 718.019 Q82.9421 717.281 82.9421 714.059 L82.9421 712.461 L84.4915 712.461 Q84.3439 714.231 84.3439 720.626 Q84.3439 727.02 84.4915 728.766 L82.9421 728.766 L82.9421 727.168 Q82.9421 723.995 82.4994 723.233 Q82.0321 722.47 80.5073 722.47 L54.4135 722.47 Q55.7416 725.102 55.7416 729.086 Z" fill="#000000" fill-rule="nonzero" fill-opacity="1" /><circle clip-path="url(#clip032)" cx="1065.75" cy="687.031" r="14.4" fill="#d77255" fill-rule="evenodd" fill-opacity="1" stroke="none"/>
<polyline clip-path="url(#clip032)" style="stroke:#009afa; stroke-linecap:round; stroke-linejoin:round; stroke-width:5.6; stroke-opacity:1; fill:none" points="1034.18,686.962 1004.95,686.956 1004.95,686.954 1004.95,686.951 1004.95,686.948 1004.95,686.944 1004.95,686.939 1004.95,686.933 1004.95,686.926 1004.95,686.918 1004.95,686.908 1004.95,686.896 1004.95,686.881 1004.95,686.864 1004.95,686.843 1004.95,686.818 1004.95,686.788 1004.95,686.753 1004.95,686.709 1004.95,686.658 1004.95,686.596 1004.95,686.522 1004.95,686.432 1004.95,686.325 1004.95,686.197 1004.95,686.043 1004.95,685.858 1004.94,685.636 1004.94,685.37 1004.93,685.05 1004.93,684.667 1004.91,684.207 1004.9,683.655 1004.87,682.992 1004.84,682.198 1004.78,681.244 1004.71,680.1 1004.6,678.728 1004.44,677.082 1004.22,675.108 1003.9,672.74 1003.43,669.9 1002.76,666.495 1001.8,662.413 1000.41,657.519 998.421,651.654 995.563,644.628 991.468,636.212 985.61,626.136 977.258,614.079 965.706,600.001 954.503,588.117 943.714,577.769 933.167,568.409 922.775,559.747 912.491,551.609 902.289,543.884 892.152,536.491 882.068,529.368 872.029,522.471 862.03,515.762 852.065,509.21 842.131,502.788 832.227,496.474 822.35,490.247 812.499,484.091 802.674,477.986 792.875,471.918 783.101,465.87 773.354,459.826 763.635,453.769 753.946,447.683 744.289,441.549 734.667,435.346 725.086,429.05 715.552,422.632 706.072,416.06 696.659,409.29 687.328,402.269 678.104,394.923 669.024,387.148 660.149,378.792 651.59,369.605 643.572,359.137 636.766,346.621 633.237,331.668 636.743,313.819 654.051,292.535 671.109,280.567 683.52,273.723 694.738,268.337 705.597,263.647 716.269,259.416 726.815,255.538 737.268,251.943 747.651,248.582 757.977,245.417 768.256,242.421 778.497,239.571 788.706,236.85 798.886,234.244 809.041,231.742 819.175,229.332 829.29,227.007 839.389,224.759 849.471,222.582 859.54,220.471 869.597,218.42 879.642,216.427 889.677,214.485 899.702,212.594 909.718,210.748 919.726,208.946 929.726,207.185 939.719,205.463 949.706,203.777 959.686,202.126 969.661,200.508 979.63,198.922 989.594,197.366 999.553,195.838 1009.51,194.338 1019.46,192.863 1029.4,191.414 1039.34,189.989 1049.28,188.587 1059.22,187.207 1069.15,185.848 1079.08,184.51 1089,183.191 1098.92,181.892 1108.84,180.61 1118.76,179.347 1128.67,178.101 1138.59,176.871 1148.49,175.658 1158.4,174.46 1168.31,173.277 1178.21,172.109 1188.11,170.955 1198.01,169.815 1207.9,168.688 1217.8,167.574 1227.69,166.473 1237.58,165.384 1247.47,164.307 1257.36,163.242 1267.24,162.188 1277.13,161.145 1287.01,160.113 1296.89,159.092 1306.77,158.08 1316.65,157.079 1326.53,156.087 1336.41,155.105 1346.28,154.133 1356.16,153.169 1366.03,152.215 1375.9,151.269 1385.77,150.331 1395.64,149.402 1405.51,148.481 1415.38,147.568 1425.24,146.663 1435.11,145.766 1444.97,144.876 1454.83,143.993 1464.7,143.118 1474.56,142.249 1484.42,141.388 1494.28,140.533 1504.14,139.685 1514,138.844 1523.85,138.009 1533.71,137.18 1543.57,136.358 1553.42,135.541 1563.28,134.731 1573.13,133.926 1582.98,133.127 1592.84,132.334 1602.69,131.547 1612.54,130.765 1622.39,129.988 1632.24,129.217 1642.09,128.45 1651.94,127.689 1661.79,126.933 1671.63,126.182 1681.48,125.436 1691.33,124.695 1701.17,123.958 1711.02,123.226 1720.86,122.499 1730.71,121.776 1740.55,121.058 1750.39,120.344 1760.23,119.634 1770.08,118.929 1779.92,118.228 1789.76,117.531 1799.6,116.838 1809.44,116.149 1819.28,115.464 1829.12,114.783 1838.96,114.106 1848.8,113.432 1858.64,112.763 1868.47,112.097 1878.31,111.435 1888.15,110.776 1897.98,110.121 1907.82,109.47 1917.66,108.822 1927.49,108.177 1937.33,107.536 1947.16,106.898 1957,106.263 1966.83,105.632 1976.66,105.004 1986.5,104.379 1996.33,103.757 2006.16,103.139 2015.99,102.523 2025.83,101.911 2035.66,101.301 2045.49,100.694 2055.32,100.091 2065.15,99.49 2074.98,98.8921 2084.81,98.297 2094.64,97.7048 2104.47,97.1152 2114.3,96.5284 2124.13,95.9443 2133.96,95.3629 2143.78,94.7842 2153.61,94.208 2163.44,93.6344 2173.27,93.0634 2183.1,92.4949 2192.92,91.929 2202.75,91.3655 2212.58,90.8044 2222.4,90.2458 2232.23,89.6896 2242.05,89.1357 2251.88,88.5843 2261.7,88.0351 2271.53,87.4882 2281.35,86.9437 2291.18,86.4014 "/>
<polyline clip-path="url(#clip032)" style="stroke:#707070; stroke-linecap:round; stroke-linejoin:round; stroke-width:5.6; stroke-opacity:1; fill:none" points="1034.18,686.962 1004.95,686.968 1004.95,686.97 1004.95,686.973 1004.95,686.976 1004.95,686.98 1004.95,686.985 1004.95,686.991 1004.95,686.998 1004.95,687.006 1004.95,687.016 1004.95,687.028 1004.95,687.043 1004.95,687.06 1004.95,687.081 1004.95,687.105 1004.95,687.135 1004.95,687.171 1004.95,687.214 1004.95,687.266 1004.95,687.328 1004.95,687.402 1004.95,687.491 1004.95,687.598 1004.95,687.727 1004.95,687.881 1004.95,688.066 1004.94,688.288 1004.94,688.555 1004.93,688.875 1004.93,689.258 1004.91,689.719 1004.9,690.272 1004.87,690.935 1004.84,691.731 1004.78,692.687 1004.71,693.834 1004.6,695.211 1004.44,696.864 1004.22,698.849 1003.9,701.231 1003.43,704.092 1002.76,707.527 1001.8,711.653 1000.41,716.609 998.421,722.564 995.563,729.72 991.468,738.322 985.61,748.666 977.258,761.11 965.706,775.729 954.503,788.147 943.714,799.018 933.167,808.898 922.775,818.081 912.491,826.742 902.289,834.996 892.152,842.925 882.068,850.59 872.029,858.037 862.03,865.307 852.065,872.429 842.131,879.431 832.227,886.337 822.35,893.168 812.499,899.943 802.674,906.68 792.875,913.398 783.101,920.114 773.354,926.844 763.635,933.609 753.946,940.426 744.289,947.319 734.667,954.31 725.086,961.428 715.552,968.705 706.072,976.182 696.659,983.909 687.328,991.95 678.104,1000.39 669.024,1009.36 660.149,1019.04 651.59,1029.72 643.572,1041.96 636.766,1056.66 633.237,1074.35 636.743,1095.63 654.051,1121.25 671.109,1135.76 683.52,1144.1 694.738,1150.67 705.597,1156.41 716.269,1161.59 726.815,1166.34 737.268,1170.75 747.651,1174.87 757.977,1178.76 768.256,1182.45 778.497,1185.96 788.706,1189.32 798.886,1192.54 809.041,1195.63 819.175,1198.62 829.29,1201.5 839.389,1204.28 849.471,1206.98 859.54,1209.61 869.597,1212.15 879.642,1214.63 889.677,1217.05 899.702,1219.4 909.718,1221.71 919.726,1223.95 929.726,1226.15 939.719,1228.3 949.706,1230.41 959.686,1232.47 969.661,1234.49 979.63,1236.48 989.594,1238.43 999.553,1240.34 1009.51,1242.22 1019.46,1244.07 1029.4,1245.89 1039.34,1247.68 1049.28,1249.44 1059.22,1251.18 1069.15,1252.89 1079.08,1254.57 1089,1256.23 1098.92,1257.86 1108.84,1259.48 1118.76,1261.07 1128.67,1262.64 1138.59,1264.19 1148.49,1265.72 1158.4,1267.23 1168.31,1268.73 1178.21,1270.2 1188.11,1271.66 1198.01,1273.1 1207.9,1274.52 1217.8,1275.93 1227.69,1277.33 1237.58,1278.7 1247.47,1280.07 1257.36,1281.42 1267.24,1282.75 1277.13,1284.07 1287.01,1285.38 1296.89,1286.67 1306.77,1287.96 1316.65,1289.23 1326.53,1290.49 1336.41,1291.73 1346.28,1292.97 1356.16,1294.19 1366.03,1295.4 1375.9,1296.6 1385.77,1297.8 1395.64,1298.98 1405.51,1300.15 1415.38,1301.31 1425.24,1302.46 1435.11,1303.6 1444.97,1304.73 1454.83,1305.86 1464.7,1306.97 1474.56,1308.08 1484.42,1309.18 1494.28,1310.26 1504.14,1311.35 1514,1312.42 1523.85,1313.48 1533.71,1314.54 1543.57,1315.59 1553.42,1316.63 1563.28,1317.66 1573.13,1318.69 1582.98,1319.71 1592.84,1320.72 1602.69,1321.73 1612.54,1322.73 1622.39,1323.72 1632.24,1324.7 1642.09,1325.68 1651.94,1326.65 1661.79,1327.62 1671.63,1328.58 1681.48,1329.53 1691.33,1330.48 1701.17,1331.42 1711.02,1332.36 1720.86,1333.29 1730.71,1334.22 1740.55,1335.14 1750.39,1336.05 1760.23,1336.96 1770.08,1337.86 1779.92,1338.76 1789.76,1339.65 1799.6,1340.54 1809.44,1341.42 1819.28,1342.3 1829.12,1343.17 1838.96,1344.04 1848.8,1344.9 1858.64,1345.76 1868.47,1346.61 1878.31,1347.46 1888.15,1348.31 1897.98,1349.15 1907.82,1349.98 1917.66,1350.81 1927.49,1351.64 1937.33,1352.46 1947.16,1353.28 1957,1354.09 1966.83,1354.9 1976.66,1355.71 1986.5,1356.51 1996.33,1357.31 2006.16,1358.11 2015.99,1358.9 2025.83,1359.68 2035.66,1360.46 2045.49,1361.24 2055.32,1362.02 2065.15,1362.79 2074.98,1363.56 2084.81,1364.32 2094.64,1365.08 2104.47,1365.84 2114.3,1366.6 2124.13,1367.35 2133.96,1368.09 2143.78,1368.84 2153.61,1369.58 2163.44,1370.32 2173.27,1371.05 2183.1,1371.78 2192.92,1372.51 2202.75,1373.23 2212.58,1373.95 2222.4,1374.67 2232.23,1375.39 2242.05,1376.1 2251.88,1376.81 2261.7,1377.52 2271.53,1378.22 2281.35,1378.92 2291.18,1379.62 "/>
<polyline clip-path="url(#clip032)" style="stroke:#21ab74; stroke-linecap:round; stroke-linejoin:round; stroke-width:5.6; stroke-opacity:1; fill:none" points="637.81,686.962 608.461,686.962 608.461,686.962 608.461,686.962 608.461,686.962 608.461,686.962 608.461,686.962 608.461,686.962 608.461,686.962 608.461,686.962 608.461,686.962 608.461,686.962 608.461,686.962 608.461,686.962 608.461,686.962 608.46,686.962 608.46,686.962 608.46,686.962 608.46,686.962 608.46,686.962 608.46,686.962 608.46,686.962 608.459,686.962 608.459,686.962 608.458,686.962 608.456,686.962 608.454,686.962 608.452,686.962 608.447,686.962 608.442,686.962 608.433,686.962 608.421,686.962 608.404,686.962 608.379,686.962 608.343,686.962 608.291,686.962 608.217,686.962 608.11,686.962 607.955,686.962 607.733,686.962 607.413,686.962 606.952,686.962 606.289,686.962 605.335,686.962 603.963,686.962 601.992,686.962 599.163,686.962 595.108,686.962 589.308,686.962 581.037,686.962 569.475,686.962 558.259,686.962 547.464,686.962 536.914,686.962 526.52,686.962 516.235,686.962 506.032,686.962 495.895,686.962 485.811,686.962 475.772,686.962 465.773,686.962 455.809,686.962 445.876,686.962 435.973,686.962 426.097,686.962 416.248,686.962 406.425,686.962 396.628,686.962 386.856,686.962 377.112,686.962 367.396,686.962 357.71,686.962 348.057,686.962 338.441,686.962 328.866,686.962 319.339,686.962 309.868,686.962 300.466,686.962 291.151,686.962 281.947,686.962 272.896,686.962 264.064,686.962 255.574,686.962 247.689,686.962 241.269,686.962 238.588,686.962 243.778,686.962 264.267,686.962 280.345,686.962 292.325,686.962 303.41,686.962 314.205,686.962 324.834,686.962 335.35,686.962 345.78,686.962 356.145,686.962 366.456,686.962 376.723,686.962 386.954,686.962 397.154,686.962 407.326,686.962 417.475,686.962 427.603,686.962 437.713,686.962 447.807,686.962 457.885,686.962 467.95,686.962 478.004,686.962 488.045,686.962 498.077,686.962 508.1,686.962 518.113,686.962 528.119,686.962 538.117,686.962 548.108,686.962 558.093,686.962 568.072,686.962 578.044,686.962 588.012,686.962 597.974,686.962 607.932,686.962 617.885,686.962 627.834,686.962 637.779,686.962 647.72,686.962 657.657,686.962 667.59,686.962 677.521,686.962 687.448,686.962 697.372,686.962 707.293,686.962 717.212,686.962 727.127,686.962 737.04,686.962 746.951,686.962 756.859,686.962 766.765,686.962 776.669,686.962 786.571,686.962 796.471,686.962 806.368,686.962 816.264,686.962 826.158,686.962 836.05,686.962 845.941,686.962 855.83,686.962 865.717,686.962 875.603,686.962 885.487,686.962 895.369,686.962 905.251,686.962 915.131,686.962 925.009,686.962 934.886,686.962 944.762,686.962 954.637,686.962 964.511,686.962 974.383,686.962 984.255,686.962 994.125,686.962 1003.99,686.962 1013.86,686.962 1023.73,686.962 1033.59,686.962 1043.46,686.962 1053.32,686.962 1063.19,686.962 1073.05,686.962 1082.91,686.962 1092.77,686.962 1102.63,686.962 1112.49,686.962 1122.35,686.962 1132.21,686.962 1142.06,686.962 1151.92,686.962 1161.77,686.962 1171.63,686.962 1181.48,686.962 1191.33,686.962 1201.19,686.962 1211.04,686.962 1220.89,686.962 1230.74,686.962 1240.59,686.962 1250.44,686.962 1260.29,686.962 1270.13,686.962 1279.98,686.962 1289.83,686.962 1299.67,686.962 1309.52,686.962 1319.36,686.962 1329.21,686.962 1339.05,686.962 1348.9,686.962 1358.74,686.962 1368.58,686.962 1378.42,686.962 1388.27,686.962 1398.11,686.962 1407.95,686.962 1417.79,686.962 1427.63,686.962 1437.47,686.962 1447.31,686.962 1457.14,686.962 1466.98,686.962 1476.82,686.962 1486.66,686.962 1496.49,686.962 1506.33,686.962 1516.17,686.962 1526,686.962 1535.84,686.962 1545.67,686.962 1555.51,686.962 1565.34,686.962 1575.17,686.962 1585.01,686.962 1594.84,686.962 1604.67,686.962 1614.51,686.962 1624.34,686.962 1634.17,686.962 1644,686.962 1653.83,686.962 1663.66,686.962 1673.49,686.962 1683.32,686.962 1693.15,686.962 1702.98,686.962 1712.81,686.962 1722.64,686.962 1732.47,686.962 1742.3,686.962 1752.13,686.962 1761.96,686.962 1771.78,686.962 1781.61,686.962 1791.44,686.962 1801.26,686.962 1811.09,686.962 1820.92,686.962 1830.74,686.962 1840.57,686.962 1850.4,686.962 1860.22,686.962 1870.05,686.962 1879.87,686.962 1889.7,686.962 1899.52,686.962 "/>
<polyline clip-path="url(#clip032)" style="stroke:#ba3030; stroke-linecap:round; stroke-linejoin:round; stroke-width:5.6; stroke-opacity:1; fill:none" points="637.81,686.962 608.461,686.968 608.461,686.97 608.461,686.973 608.461,686.976 608.461,686.98 608.461,686.985 608.461,686.991 608.461,686.998 608.461,687.006 608.461,687.016 608.461,687.028 608.461,687.042 608.461,687.06 608.461,687.08 608.46,687.105 608.46,687.135 608.46,687.171 608.46,687.213 608.46,687.265 608.46,687.327 608.46,687.401 608.459,687.49 608.459,687.597 608.458,687.725 608.456,687.878 608.454,688.063 608.452,688.284 608.447,688.55 608.442,688.869 608.433,689.251 608.421,689.711 608.404,690.262 608.379,690.923 608.343,691.717 608.291,692.67 608.217,693.814 608.11,695.186 607.955,696.834 607.733,698.813 607.413,701.188 606.952,704.04 606.289,707.465 605.335,711.578 603.963,716.52 601.992,722.456 599.163,729.591 595.108,738.167 589.308,748.479 581.037,760.885 569.475,775.603 558.259,788.095 547.464,799.019 536.914,808.941 526.52,818.16 516.235,826.854 506.032,835.138 495.895,843.096 485.811,850.788 475.772,858.262 465.773,865.557 455.809,872.705 445.876,879.734 435.973,886.666 426.097,893.524 416.248,900.327 406.425,907.093 396.628,913.84 386.856,920.587 377.112,927.35 367.396,934.149 357.71,941.004 348.057,947.936 338.441,954.972 328.866,962.138 319.339,969.47 309.868,977.009 300.466,984.807 291.151,992.933 281.947,1001.48 272.896,1010.58 264.064,1020.42 255.574,1031.35 247.689,1043.96 241.269,1059.13 238.588,1077.37 243.778,1099.32 264.267,1125.73 280.345,1138.38 292.325,1146.08 303.41,1152.38 314.205,1157.94 324.834,1162.98 335.35,1167.63 345.78,1171.95 356.145,1176.01 366.456,1179.85 376.723,1183.48 386.954,1186.95 397.154,1190.27 407.326,1193.46 417.475,1196.52 427.603,1199.48 437.713,1202.33 447.807,1205.09 457.885,1207.77 467.95,1210.38 478.004,1212.91 488.045,1215.37 498.077,1217.77 508.1,1220.12 518.113,1222.4 528.119,1224.64 538.117,1226.82 548.108,1228.96 558.093,1231.06 568.072,1233.11 578.044,1235.13 588.012,1237.11 597.974,1239.05 607.932,1240.95 617.885,1242.83 627.834,1244.67 637.779,1246.48 647.72,1248.27 657.657,1250.02 667.59,1251.75 677.521,1253.45 687.448,1255.13 697.372,1256.79 707.293,1258.42 717.212,1260.03 727.127,1261.61 737.04,1263.18 746.951,1264.73 756.859,1266.25 766.765,1267.76 776.669,1269.25 786.571,1270.72 796.471,1272.18 806.368,1273.62 816.264,1275.04 826.158,1276.44 836.05,1277.83 845.941,1279.21 855.83,1280.57 865.717,1281.92 875.603,1283.25 885.487,1284.57 895.369,1285.87 905.251,1287.17 915.131,1288.45 925.009,1289.71 934.886,1290.97 944.762,1292.21 954.637,1293.45 964.511,1294.67 974.383,1295.88 984.255,1297.08 994.125,1298.27 1003.99,1299.45 1013.86,1300.62 1023.73,1301.78 1033.59,1302.93 1043.46,1304.07 1053.32,1305.2 1063.19,1306.32 1073.05,1307.44 1082.91,1308.54 1092.77,1309.64 1102.63,1310.72 1112.49,1311.8 1122.35,1312.87 1132.21,1313.94 1142.06,1314.99 1151.92,1316.04 1161.77,1317.08 1171.63,1318.11 1181.48,1319.14 1191.33,1320.16 1201.19,1321.17 1211.04,1322.18 1220.89,1323.17 1230.74,1324.16 1240.59,1325.15 1250.44,1326.13 1260.29,1327.1 1270.13,1328.06 1279.98,1329.02 1289.83,1329.98 1299.67,1330.92 1309.52,1331.87 1319.36,1332.8 1329.21,1333.73 1339.05,1334.66 1348.9,1335.57 1358.74,1336.49 1368.58,1337.39 1378.42,1338.3 1388.27,1339.19 1398.11,1340.09 1407.95,1340.97 1417.79,1341.86 1427.63,1342.73 1437.47,1343.6 1447.31,1344.47 1457.14,1345.33 1466.98,1346.19 1476.82,1347.04 1486.66,1347.89 1496.49,1348.74 1506.33,1349.58 1516.17,1350.41 1526,1351.24 1535.84,1352.07 1545.67,1352.89 1555.51,1353.71 1565.34,1354.52 1575.17,1355.33 1585.01,1356.14 1594.84,1356.94 1604.67,1357.74 1614.51,1358.53 1624.34,1359.32 1634.17,1360.11 1644,1360.89 1653.83,1361.67 1663.66,1362.45 1673.49,1363.22 1683.32,1363.98 1693.15,1364.75 1702.98,1365.51 1712.81,1366.27 1722.64,1367.02 1732.47,1367.77 1742.3,1368.52 1752.13,1369.26 1761.96,1370 1771.78,1370.74 1781.61,1371.47 1791.44,1372.2 1801.26,1372.93 1811.09,1373.66 1820.92,1374.38 1830.74,1375.1 1840.57,1375.81 1850.4,1376.52 1860.22,1377.23 1870.05,1377.94 1879.87,1378.64 1889.7,1379.34 1899.52,1380.04 "/>
<polyline clip-path="url(#clip032)" style="stroke:#9467bd; stroke-linecap:round; stroke-linejoin:round; stroke-width:5.6; stroke-opacity:1; fill:none" points="637.81,686.962 608.461,686.956 608.461,686.954 608.461,686.951 608.461,686.948 608.461,686.944 608.461,686.939 608.461,686.933 608.461,686.926 608.461,686.918 608.461,686.908 608.461,686.896 608.461,686.881 608.461,686.864 608.461,686.843 608.46,686.819 608.46,686.789 608.46,686.753 608.46,686.71 608.46,686.659 608.46,686.597 608.46,686.523 608.459,686.434 608.459,686.327 608.458,686.199 608.456,686.045 608.454,685.861 608.452,685.64 608.447,685.374 608.442,685.056 608.433,684.673 608.421,684.215 608.404,683.664 608.379,683.004 608.343,682.212 608.291,681.261 608.217,680.121 608.11,678.753 607.955,677.112 607.733,675.144 607.413,672.783 606.952,669.952 606.289,666.557 605.335,662.486 603.963,657.607 601.992,651.76 599.163,644.754 595.108,636.363 589.308,626.317 581.037,614.296 569.475,600.122 558.259,588.167 547.464,577.768 536.914,568.369 526.52,559.672 516.235,551.505 506.032,543.752 495.895,536.332 485.811,529.185 475.772,522.264 465.773,515.531 455.809,508.955 445.876,502.51 435.973,496.173 426.097,489.923 416.248,483.742 406.425,477.613 396.628,471.519 386.856,465.444 377.112,459.372 367.396,453.286 357.71,447.168 348.057,441 338.441,434.759 328.866,428.422 319.339,421.958 309.868,415.334 300.466,408.504 291.151,401.411 281.947,393.979 272.896,386.096 264.064,377.597 255.574,368.208 247.689,357.422 241.269,344.527 238.588,329.124 243.778,310.741 264.267,288.824 280.345,278.411 292.325,272.091 303.41,266.938 314.205,262.397 324.834,258.286 335.35,254.493 345.78,250.967 356.145,247.663 366.456,244.546 376.723,241.591 386.954,238.777 397.154,236.088 407.326,233.51 417.475,231.032 427.603,228.645 437.713,226.34 447.807,224.111 457.885,221.951 467.95,219.855 478.004,217.819 488.045,215.839 498.077,213.91 508.1,212.029 518.113,210.194 528.119,208.402 538.117,206.65 548.108,204.937 558.093,203.259 568.072,201.616 578.044,200.006 588.012,198.426 597.974,196.877 607.932,195.355 617.885,193.86 627.834,192.392 637.779,190.948 647.72,189.527 657.657,188.13 667.59,186.754 677.521,185.4 687.448,184.066 697.372,182.751 707.293,181.455 717.212,180.178 727.127,178.918 737.04,177.675 746.951,176.449 756.859,175.239 766.765,174.044 776.669,172.864 786.571,171.698 796.471,170.547 806.368,169.409 816.264,168.284 826.158,167.173 836.05,166.074 845.941,164.987 855.83,163.912 865.717,162.849 875.603,161.797 885.487,160.756 895.369,159.726 905.251,158.706 915.131,157.696 925.009,156.697 934.886,155.707 944.762,154.726 954.637,153.755 964.511,152.793 974.383,151.839 984.255,150.895 994.125,149.959 1003.99,149.031 1013.86,148.111 1023.73,147.199 1033.59,146.295 1043.46,145.399 1053.32,144.51 1063.19,143.628 1073.05,142.754 1082.91,141.886 1092.77,141.026 1102.63,140.172 1112.49,139.325 1122.35,138.484 1132.21,137.65 1142.06,136.822 1151.92,136.001 1161.77,135.185 1171.63,134.375 1181.48,133.571 1191.33,132.773 1201.19,131.981 1211.04,131.194 1220.89,130.412 1230.74,129.636 1240.59,128.865 1250.44,128.1 1260.29,127.339 1270.13,126.584 1279.98,125.833 1289.83,125.088 1299.67,124.347 1309.52,123.611 1319.36,122.879 1329.21,122.152 1339.05,121.43 1348.9,120.712 1358.74,119.998 1368.58,119.289 1378.42,118.584 1388.27,117.883 1398.11,117.187 1407.95,116.494 1417.79,115.805 1427.63,115.121 1437.47,114.44 1447.31,113.763 1457.14,113.09 1466.98,112.421 1476.82,111.755 1486.66,111.093 1496.49,110.435 1506.33,109.78 1516.17,109.129 1526,108.481 1535.84,107.836 1545.67,107.195 1555.51,106.558 1565.34,105.923 1575.17,105.292 1585.01,104.664 1594.84,104.04 1604.67,103.418 1614.51,102.799 1624.34,102.184 1634.17,101.571 1644,100.962 1653.83,100.356 1663.66,99.752 1673.49,99.1513 1683.32,98.5535 1693.15,97.9585 1702.98,97.3663 1712.81,96.7768 1722.64,96.1901 1732.47,95.6061 1742.3,95.0247 1752.13,94.446 1761.96,93.8699 1771.78,93.2964 1781.61,92.7254 1791.44,92.1569 1801.26,91.591 1811.09,91.0275 1820.92,90.4665 1830.74,89.9079 1840.57,89.3517 1850.4,88.7978 1860.22,88.2463 1870.05,87.6972 1879.87,87.1503 1889.7,86.6057 1899.52,86.0634 "/>
</svg>
