<svg class="main-svg" xmlns="http://www.w3.org/2000/svg" xmlns:xlink="http://www.w3.org/1999/xlink" width="700" height="500" style="" viewBox="0 0 700 500"><rect x="0" y="0" width="700" height="500" style="fill: rgb(255, 255, 255); fill-opacity: 1;"/><defs id="defs-531b1f"><g class="clips"><clipPath id="clip531b1fxyplot" class="plotclip"><rect width="534.6340040828229" height="371.48950131233596"/></clipPath><clipPath class="axesclip" id="clip531b1fx"><rect x="61.757072032662585" y="0" width="534.6340040828229" height="500"/></clipPath><clipPath class="axesclip" id="clip531b1fy"><rect x="0" y="63.83858267716535" width="700" height="371.48950131233596"/></clipPath><clipPath class="axesclip" id="clip531b1fxy"><rect x="61.757072032662585" y="63.83858267716535" width="534.6340040828229" height="371.48950131233596"/></clipPath></g><g class="gradients"/></defs><g class="bglayer"/><g class="layer-below"><g class="imagelayer"/><g class="shapelayer"/></g><g class="cartesianlayer"><g class="subplot xy"><g class="layer-subplot"><g class="shapelayer"/><g class="imagelayer"/></g><g class="gridlayer"><g class="x"><path class="xgrid crisp" transform="translate(115.21707203266259,0)" d="M0,63.83858267716535v371.48950131233596" style="stroke: rgb(0, 0, 0); stroke-opacity: 0.4; stroke-width: 0.7px;"/><path class="xgrid crisp" transform="translate(222.14707203266258,0)" d="M0,63.83858267716535v371.48950131233596" style="stroke: rgb(0, 0, 0); stroke-opacity: 0.4; stroke-width: 0.7px;"/><path class="xgrid crisp" transform="translate(329.07707203266256,0)" d="M0,63.83858267716535v371.48950131233596" style="stroke: rgb(0, 0, 0); stroke-opacity: 0.4; stroke-width: 0.7px;"/><path class="xgrid crisp" transform="translate(435.9970720326626,0)" d="M0,63.83858267716535v371.48950131233596" style="stroke: rgb(0, 0, 0); stroke-opacity: 0.4; stroke-width: 0.7px;"/><path class="xgrid crisp" transform="translate(542.9270720326626,0)" d="M0,63.83858267716535v371.48950131233596" style="stroke: rgb(0, 0, 0); stroke-opacity: 0.4; stroke-width: 0.7px;"/></g><g class="y"><path class="ygrid crisp" transform="translate(0,423.0485826771653)" d="M61.757072032662585,0h534.6340040828229" style="stroke: rgb(0, 0, 0); stroke-opacity: 0.4; stroke-width: 0.7px;"/><path class="ygrid crisp" transform="translate(0,321.27858267716533)" d="M61.757072032662585,0h534.6340040828229" style="stroke: rgb(0, 0, 0); stroke-opacity: 0.4; stroke-width: 0.7px;"/><path class="ygrid crisp" transform="translate(0,219.50858267716535)" d="M61.757072032662585,0h534.6340040828229" style="stroke: rgb(0, 0, 0); stroke-opacity: 0.4; stroke-width: 0.7px;"/><path class="ygrid crisp" transform="translate(0,117.74858267716534)" d="M61.757072032662585,0h534.6340040828229" style="stroke: rgb(0, 0, 0); stroke-opacity: 0.4; stroke-width: 0.7px;"/></g></g><g class="zerolinelayer"/><path class="xlines-below"/><path class="ylines-below"/><g class="overlines-below"/><g class="xaxislayer-below"/><g class="yaxislayer-below"/><g class="overaxes-below"/><g class="plot" transform="translate(61.757072032662585,63.83858267716535)" clip-path="url('#clip531b1fxyplot')"><g class="scatterlayer mlayer"><g class="trace scatter trace46f7dc" style="stroke-miterlimit: 2; opacity: 1;"><g class="fills"/><g class="errorbars"/><g class="lines"/><g class="points"><path class="point" transform="translate(270.52,173.28)" d="M4,0A4,4 0 1,1 0,-4A4,4 0 0,1 4,0Z" style="opacity: 1; stroke-width: 0px; fill: rgb(215, 114, 85); fill-opacity: 1;"/></g><g class="text"/></g><g class="trace scatter traceb4ea1c" style="stroke-miterlimit: 2; opacity: 1;"><g class="fills"/><g class="errorbars"/><g class="lines"><path class="js-line" d="M268.8,173.26L267.2,173.26L267.2,172.52L267.2,172.37L266.47,159.52L266.15,156.79L263.28,141.15L262.71,138.81L257.23,119.98L256.69,118.32L248.85,92.06L248.36,89.8L247.08,81.08L246.89,77.03L248.03,66.43L248.96,63.19L252.58,55.44L253.14,54.53L258.16,48.08L258.71,47.49L265.82,41.08L266.36,40.66L276.67,33.82L277.21,33.51L290.17,26.93L290.71,26.68L307.93,19.8L308.47,19.61L331.58,12.26L332.11,12.1L337.48,10.61" style="vector-effect: non-scaling-stroke; fill: none; stroke: rgb(0, 154, 250); stroke-opacity: 1; stroke-width: 1.4px; opacity: 1;"/></g><g class="points"/><g class="text"/></g><g class="trace scatter trace26bbd7" style="stroke-miterlimit: 2; opacity: 1;"><g class="fills"/><g class="errorbars"/><g class="lines"><path class="js-line" d="M268.8,173.26L267.2,173.26L267.2,174.01L267.2,174.16L266.47,187.17L266.15,189.97L263.28,206.29L262.71,208.77L256.69,230.95L256.15,232.77L249.34,258.15L248.85,260.58L247.08,273.39L246.89,278.18L248.03,290.88L248.96,294.81L252.58,304.29L253.14,305.41L258.71,314.1L259.26,314.81L266.36,322.62L266.91,323.14L276.13,330.83L276.67,331.23L289.09,339.34L289.63,339.65L305.78,348.06L306.32,348.31L326.21,356.72L326.74,356.92L337.48,360.86" style="vector-effect: non-scaling-stroke; fill: none; stroke: rgb(112, 112, 112); stroke-opacity: 1; stroke-width: 1.4px; opacity: 1;"/></g><g class="points"/><g class="text"/></g><g class="trace scatter trace5c5e4d" style="stroke-miterlimit: 2; opacity: 1;"><g class="fills"/><g class="errorbars"/><g class="lines"><path class="js-line" d="M247.14,173.26L225.33,173.26L316.08,173.26" style="vector-effect: non-scaling-stroke; fill: none; stroke: rgb(33, 171, 116); stroke-opacity: 1; stroke-width: 1.4px; opacity: 1;"/></g><g class="points"/><g class="text"/></g><g class="trace scatter traced12822" style="stroke-miterlimit: 2; opacity: 1;"><g class="fills"/><g class="errorbars"/><g class="lines"><path class="js-line" d="M247.14,173.26L245.54,173.26L245.54,174.01L245.53,174.16L244.81,187.13L244.49,189.92L241.63,206.3L241.06,208.8L235.04,231.05L234.5,232.88L227.7,258.45L227.2,260.91L225.47,274.06L225.33,279L225.61,284.94L226.73,292.1L230.04,302.19L230.61,303.45L235.1,311.27L235.66,312.07L242.24,320.06L242.79,320.63L251.48,328.47L252.02,328.9L262.29,336.17L262.83,336.51L276.85,344.48L277.39,344.76L294.6,352.72L295.14,352.95L312.86,359.83L313.4,360.02L316.08,360.98" style="vector-effect: non-scaling-stroke; fill: none; stroke: rgb(186, 48, 48); stroke-opacity: 1; stroke-width: 1.4px; opacity: 1;"/></g><g class="points"/><g class="text"/></g><g class="trace scatter trace7a5eaf" style="stroke-miterlimit: 2; opacity: 1;"><g class="fills"/><g class="errorbars"/><g class="lines"><path class="js-line" d="M247.14,173.26L245.54,173.26L245.54,172.52L245.53,172.37L244.81,159.56L244.49,156.84L241.63,141.14L241.06,138.79L235.57,119.9L235.04,118.22L227.2,91.77L226.72,89.47L225.47,80.52L225.33,76.34L225.61,71.37L226.73,65.43L230.04,57.16L230.61,56.13L235.66,49.13L236.21,48.51L242.79,42.26L243.33,41.81L252.56,35.33L253.11,34.99L266.61,27.82L267.15,27.57L283.31,20.88L283.84,20.68L310.18,12.16L310.71,12.01L316.08,10.51" style="vector-effect: non-scaling-stroke; fill: none; stroke: rgb(148, 103, 189); stroke-opacity: 1; stroke-width: 1.4px; opacity: 1;"/></g><g class="points"/><g class="text"/></g><g class="trace scatter traceadb4de" style="stroke-miterlimit: 2; opacity: 1;"><g class="fills"/><g class="errorbars"/><g class="lines"><path class="js-line" d="M-4009.76,37.72L-2682.39,42.56L-2516.47,45.94L-1355.02,51.99L-1189.1,60.67L-691.34,57.94L-525.42,59.46L-359.5,65.58L-193.57,64.2L-27.65,65.03L138.27,80.76L304.19,70.1L470.11,77.45L636.03,83.7L801.95,113.67" style="vector-effect: non-scaling-stroke; fill: none; stroke: rgb(215, 114, 85); stroke-opacity: 1; stroke-width: 1.4px; opacity: 1;"/></g><g class="points"/><g class="text"/></g><g class="trace scatter trace9ab5ba" style="stroke-miterlimit: 2; opacity: 1;"><g class="fills"/><g class="errorbars"/><g class="lines"/><g class="points"><path class="point" transform="translate(258.18,73.06)" d="M4,0A4,4 0 1,1 0,-4A4,4 0 0,1 4,0Z" style="opacity: 1; stroke-width: 0px; fill: rgb(0, 154, 250); fill-opacity: 1;"/></g><g class="text"/></g></g></g><g class="overplot"/><path class="xlines-above crisp" d="M60.757072032662585,435.8280839895013H597.3910761154855M60.757072032662585,63.33858267716535H597.3910761154855" style="fill: none; stroke-width: 1px; stroke: rgb(0, 0, 0); stroke-opacity: 1;"/><path class="ylines-above crisp" d="M61.257072032662585,63.83858267716535V435.3280839895013M596.8910761154855,63.83858267716535V435.3280839895013" style="fill: none; stroke-width: 1px; stroke: rgb(0, 0, 0); stroke-opacity: 1;"/><g class="overlines-above"/><g class="xaxislayer-above"><path class="xtick ticks crisp" d="M0,435.3280839895013v-5" transform="translate(115.21707203266259,0)" style="stroke: rgb(0, 0, 0); stroke-opacity: 1; stroke-width: 1px;"/><path class="xtick ticks crisp" d="M0,435.3280839895013v-5" transform="translate(222.14707203266258,0)" style="stroke: rgb(0, 0, 0); stroke-opacity: 1; stroke-width: 1px;"/><path class="xtick ticks crisp" d="M0,435.3280839895013v-5" transform="translate(329.07707203266256,0)" style="stroke: rgb(0, 0, 0); stroke-opacity: 1; stroke-width: 1px;"/><path class="xtick ticks crisp" d="M0,435.3280839895013v-5" transform="translate(435.9970720326626,0)" style="stroke: rgb(0, 0, 0); stroke-opacity: 1; stroke-width: 1px;"/><path class="xtick ticks crisp" d="M0,435.3280839895013v-5" transform="translate(542.9270720326626,0)" style="stroke: rgb(0, 0, 0); stroke-opacity: 1; stroke-width: 1px;"/><g class="xtick"><text text-anchor="middle" x="0" y="449.5280839895013" transform="translate(115.21707203266259,0)" style="font-family: 'Computer Modern'; font-size: 11px; fill: rgb(0, 0, 0); fill-opacity: 1; white-space: pre;">7.76</text></g><g class="xtick"><text text-anchor="middle" x="0" y="449.5280839895013" transform="translate(222.14707203266258,0)" style="font-family: 'Computer Modern'; font-size: 11px; fill: rgb(0, 0, 0); fill-opacity: 1; white-space: pre;">7.78</text></g><g class="xtick"><text text-anchor="middle" x="0" y="449.5280839895013" transform="translate(329.07707203266256,0)" style="font-family: 'Computer Modern'; font-size: 11px; fill: rgb(0, 0, 0); fill-opacity: 1; white-space: pre;">7.80</text></g><g class="xtick"><text text-anchor="middle" x="0" y="449.5280839895013" transform="translate(435.9970720326626,0)" style="font-family: 'Computer Modern'; font-size: 11px; fill: rgb(0, 0, 0); fill-opacity: 1; white-space: pre;">7.82</text></g><g class="xtick"><text text-anchor="middle" x="0" y="449.5280839895013" transform="translate(542.9270720326626,0)" style="font-family: 'Computer Modern'; font-size: 11px; fill: rgb(0, 0, 0); fill-opacity: 1; white-space: pre;">7.84</text></g></g><g class="yaxislayer-above"><path class="ytick ticks crisp" d="M61.757072032662585,0h5" transform="translate(0,423.0485826771653)" style="stroke: rgb(0, 0, 0); stroke-opacity: 1; stroke-width: 1px;"/><path class="ytick ticks crisp" d="M61.757072032662585,0h5" transform="translate(0,321.27858267716533)" style="stroke: rgb(0, 0, 0); stroke-opacity: 1; stroke-width: 1px;"/><path class="ytick ticks crisp" d="M61.757072032662585,0h5" transform="translate(0,219.50858267716535)" style="stroke: rgb(0, 0, 0); stroke-opacity: 1; stroke-width: 1px;"/><path class="ytick ticks crisp" d="M61.757072032662585,0h5" transform="translate(0,117.74858267716534)" style="stroke: rgb(0, 0, 0); stroke-opacity: 1; stroke-width: 1px;"/><g class="ytick"><text text-anchor="end" x="58.55707203266258" y="3.8499999999999996" transform="translate(0,423.0485826771653)" style="font-family: 'Computer Modern'; font-size: 11px; fill: rgb(0, 0, 0); fill-opacity: 1; white-space: pre;">2</text></g><g class="ytick"><text text-anchor="end" x="58.55707203266258" y="3.8499999999999996" transform="translate(0,321.27858267716533)" style="font-family: 'Computer Modern'; font-size: 11px; fill: rgb(0, 0, 0); fill-opacity: 1; white-space: pre;">3</text></g><g class="ytick"><text text-anchor="end" x="58.55707203266258" y="3.8499999999999996" transform="translate(0,219.50858267716535)" style="font-family: 'Computer Modern'; font-size: 11px; fill: rgb(0, 0, 0); fill-opacity: 1; white-space: pre;">4</text></g><g class="ytick"><text text-anchor="end" x="58.55707203266258" y="3.8499999999999996" transform="translate(0,117.74858267716534)" style="font-family: 'Computer Modern'; font-size: 11px; fill: rgb(0, 0, 0); fill-opacity: 1; white-space: pre;">5</text></g></g><g class="overaxes-above"/></g></g><g class="polarlayer"/><g class="ternarylayer"/><g class="geolayer"/><g class="funnelarealayer"/><g class="pielayer"/><g class="treemaplayer"/><g class="sunburstlayer"/><g class="glimages"/><defs id="topdefs-531b1f"><g class="clips"/><clipPath id="legend531b1f"><rect width="58" height="162" x="1" y="1"/></clipPath></defs><g class="layer-above"><g class="imagelayer"/><g class="shapelayer"/></g><g class="infolayer"><g class="legend" pointer-events="all" transform="translate(627.5,60)"><rect class="bg" shape-rendering="crispEdges" width="59" height="163" x="0.5" y="0.5" style="stroke: rgb(0, 0, 0); stroke-opacity: 1; fill: rgb(255, 255, 255); fill-opacity: 1; stroke-width: 1px;"/><g class="scrollbox" transform="" clip-path="url('#legend531b1f')"><g class="groups"><g class="traces" transform="translate(1,15.5)" style="opacity: 1;"><text class="legendtext" text-anchor="start" x="40" y="4.29" style="font-family: 'Computer Modern'; font-size: 11px; fill: rgb(0, 0, 0); fill-opacity: 1; white-space: pre;">y1</text><g class="layers" style="opacity: 1;"><g class="legendfill"/><g class="legendlines"/><g class="legendsymbols"><g class="legendpoints"><path class="scatterpts" transform="translate(20,0)" d="M4,0A4,4 0 1,1 0,-4A4,4 0 0,1 4,0Z" style="opacity: 1; stroke-width: 0px; fill: rgb(215, 114, 85); fill-opacity: 1;"/></g></g></g><rect class="legendtoggle" x="0" y="-9.5" width="52.5" height="19" style="fill: rgb(0, 0, 0); fill-opacity: 0;"/></g><g class="traces" transform="translate(1,34.5)" style="opacity: 1;"><text class="legendtext" text-anchor="start" x="40" y="4.29" style="font-family: 'Computer Modern'; font-size: 11px; fill: rgb(0, 0, 0); fill-opacity: 1; white-space: pre;">y2</text><g class="layers" style="opacity: 1;"><g class="legendfill"/><g class="legendlines"><path class="js-line" d="M5,0h30" style="fill: none; stroke: rgb(0, 154, 250); stroke-opacity: 1; stroke-width: 1.4px;"/></g><g class="legendsymbols"><g class="legendpoints"/></g></g><rect class="legendtoggle" x="0" y="-9.5" width="52.5" height="19" style="fill: rgb(0, 0, 0); fill-opacity: 0;"/></g><g class="traces" transform="translate(1,53.5)" style="opacity: 1;"><text class="legendtext" text-anchor="start" x="40" y="4.29" style="font-family: 'Computer Modern'; font-size: 11px; fill: rgb(0, 0, 0); fill-opacity: 1; white-space: pre;">y3</text><g class="layers" style="opacity: 1;"><g class="legendfill"/><g class="legendlines"><path class="js-line" d="M5,0h30" style="fill: none; stroke: rgb(112, 112, 112); stroke-opacity: 1; stroke-width: 1.4px;"/></g><g class="legendsymbols"><g class="legendpoints"/></g></g><rect class="legendtoggle" x="0" y="-9.5" width="52.5" height="19" style="fill: rgb(0, 0, 0); fill-opacity: 0;"/></g><g class="traces" transform="translate(1,72.5)" style="opacity: 1;"><text class="legendtext" text-anchor="start" x="40" y="4.29" style="font-family: 'Computer Modern'; font-size: 11px; fill: rgb(0, 0, 0); fill-opacity: 1; white-space: pre;">y4</text><g class="layers" style="opacity: 1;"><g class="legendfill"/><g class="legendlines"><path class="js-line" d="M5,0h30" style="fill: none; stroke: rgb(33, 171, 116); stroke-opacity: 1; stroke-width: 1.4px;"/></g><g class="legendsymbols"><g class="legendpoints"/></g></g><rect class="legendtoggle" x="0" y="-9.5" width="52.5" height="19" style="fill: rgb(0, 0, 0); fill-opacity: 0;"/></g><g class="traces" transform="translate(1,91.5)" style="opacity: 1;"><text class="legendtext" text-anchor="start" x="40" y="4.29" style="font-family: 'Computer Modern'; font-size: 11px; fill: rgb(0, 0, 0); fill-opacity: 1; white-space: pre;">y5</text><g class="layers" style="opacity: 1;"><g class="legendfill"/><g class="legendlines"><path class="js-line" d="M5,0h30" style="fill: none; stroke: rgb(186, 48, 48); stroke-opacity: 1; stroke-width: 1.4px;"/></g><g class="legendsymbols"><g class="legendpoints"/></g></g><rect class="legendtoggle" x="0" y="-9.5" width="52.5" height="19" style="fill: rgb(0, 0, 0); fill-opacity: 0;"/></g><g class="traces" transform="translate(1,110.5)" style="opacity: 1;"><text class="legendtext" text-anchor="start" x="40" y="4.29" style="font-family: 'Computer Modern'; font-size: 11px; fill: rgb(0, 0, 0); fill-opacity: 1; white-space: pre;">y6</text><g class="layers" style="opacity: 1;"><g class="legendfill"/><g class="legendlines"><path class="js-line" d="M5,0h30" style="fill: none; stroke: rgb(148, 103, 189); stroke-opacity: 1; stroke-width: 1.4px;"/></g><g class="legendsymbols"><g class="legendpoints"/></g></g><rect class="legendtoggle" x="0" y="-9.5" width="52.5" height="19" style="fill: rgb(0, 0, 0); fill-opacity: 0;"/></g><g class="traces" transform="translate(1,129.5)" style="opacity: 1;"><text class="legendtext" text-anchor="start" x="40" y="4.29" style="font-family: 'Computer Modern'; font-size: 11px; fill: rgb(0, 0, 0); fill-opacity: 1; white-space: pre;">y7</text><g class="layers" style="opacity: 1;"><g class="legendfill"/><g class="legendlines"><path class="js-line" d="M5,0h30" style="fill: none; stroke: rgb(215, 114, 85); stroke-opacity: 1; stroke-width: 1.4px;"/></g><g class="legendsymbols"><g class="legendpoints"/></g></g><rect class="legendtoggle" x="0" y="-9.5" width="52.5" height="19" style="fill: rgb(0, 0, 0); fill-opacity: 0;"/></g><g class="traces" transform="translate(1,148.5)" style="opacity: 1;"><text class="legendtext" text-anchor="start" x="40" y="4.29" style="font-family: 'Computer Modern'; font-size: 11px; fill: rgb(0, 0, 0); fill-opacity: 1; white-space: pre;">y8</text><g class="layers" style="opacity: 1;"><g class="legendfill"/><g class="legendlines"/><g class="legendsymbols"><g class="legendpoints"><path class="scatterpts" transform="translate(20,0)" d="M4,0A4,4 0 1,1 0,-4A4,4 0 0,1 4,0Z" style="opacity: 1; stroke-width: 0px; fill: rgb(0, 154, 250); fill-opacity: 1;"/></g></g></g><rect class="legendtoggle" x="0" y="-9.5" width="52.5" height="19" style="fill: rgb(0, 0, 0); fill-opacity: 0;"/></g></g></g><rect class="scrollbar" rx="20" ry="3" width="0" height="0" x="0" y="0" style="fill: rgb(128, 139, 164); fill-opacity: 1;"/></g><g class="g-gtitle"/><g class="g-xtitle"/><g class="g-ytitle"/></g></svg>