<svg class="main-svg" xmlns="http://www.w3.org/2000/svg" xmlns:xlink="http://www.w3.org/1999/xlink" width="700" height="500" style="" viewBox="0 0 700 500"><rect x="0" y="0" width="700" height="500" style="fill: rgb(255, 255, 255); fill-opacity: 1;"/><defs id="defs-61cb8e"><g class="clips"><clipPath id="clip61cb8exyplot" class="plotclip"><rect width="534.6340040828229" height="371.48950131233596"/></clipPath><clipPath class="axesclip" id="clip61cb8ex"><rect x="61.757072032662585" y="0" width="534.6340040828229" height="500"/></clipPath><clipPath class="axesclip" id="clip61cb8ey"><rect x="0" y="63.83858267716535" width="700" height="371.48950131233596"/></clipPath><clipPath class="axesclip" id="clip61cb8exy"><rect x="61.757072032662585" y="63.83858267716535" width="534.6340040828229" height="371.48950131233596"/></clipPath></g><g class="gradients"/></defs><g class="bglayer"/><g class="layer-below"><g class="imagelayer"/><g class="shapelayer"/></g><g class="cartesianlayer"><g class="subplot xy"><g class="layer-subplot"><g class="shapelayer"/><g class="imagelayer"/></g><g class="gridlayer"><g class="x"><path class="xgrid crisp" transform="translate(76.88707203266259,0)" d="M0,63.83858267716535v371.48950131233596" style="stroke: rgb(0, 0, 0); stroke-opacity: 0.4; stroke-width: 0.7px;"/><path class="xgrid crisp" transform="translate(188.96707203266257,0)" d="M0,63.83858267716535v371.48950131233596" style="stroke: rgb(0, 0, 0); stroke-opacity: 0.4; stroke-width: 0.7px;"/><path class="xgrid crisp" transform="translate(301.0570720326626,0)" d="M0,63.83858267716535v371.48950131233596" style="stroke: rgb(0, 0, 0); stroke-opacity: 0.4; stroke-width: 0.7px;"/><path class="xgrid crisp" transform="translate(413.13707203266256,0)" d="M0,63.83858267716535v371.48950131233596" style="stroke: rgb(0, 0, 0); stroke-opacity: 0.4; stroke-width: 0.7px;"/><path class="xgrid crisp" transform="translate(525.2170720326626,0)" d="M0,63.83858267716535v371.48950131233596" style="stroke: rgb(0, 0, 0); stroke-opacity: 0.4; stroke-width: 0.7px;"/></g><g class="y"><path class="ygrid crisp" transform="translate(0,423.0485826771653)" d="M61.757072032662585,0h534.6340040828229" style="stroke: rgb(0, 0, 0); stroke-opacity: 0.4; stroke-width: 0.7px;"/><path class="ygrid crisp" transform="translate(0,321.27858267716533)" d="M61.757072032662585,0h534.6340040828229" style="stroke: rgb(0, 0, 0); stroke-opacity: 0.4; stroke-width: 0.7px;"/><path class="ygrid crisp" transform="translate(0,219.50858267716535)" d="M61.757072032662585,0h534.6340040828229" style="stroke: rgb(0, 0, 0); stroke-opacity: 0.4; stroke-width: 0.7px;"/><path class="ygrid crisp" transform="translate(0,117.74858267716534)" d="M61.757072032662585,0h534.6340040828229" style="stroke: rgb(0, 0, 0); stroke-opacity: 0.4; stroke-width: 0.7px;"/></g></g><g class="zerolinelayer"/><path class="xlines-below"/><path class="ylines-below"/><g class="overlines-below"/><g class="xaxislayer-below"/><g class="yaxislayer-below"/><g class="overaxes-below"/><g class="plot" transform="translate(61.757072032662585,63.83858267716535)" clip-path="url('#clip61cb8exyplot')"><g class="scatterlayer mlayer"><g class="trace scatter traced523ea" style="stroke-miterlimit: 2; opacity: 1;"><g class="fills"/><g class="errorbars"/><g class="lines"/><g class="points"><path class="point" transform="translate(463.8,173.28)" d="M4,0A4,4 0 1,1 0,-4A4,4 0 0,1 4,0Z" style="opacity: 1; stroke-width: 0px; fill: rgb(215, 114, 85); fill-opacity: 1;"/></g><g class="text"/></g><g class="trace scatter traceddb2e3" style="stroke-miterlimit: 2; opacity: 1;"><g class="fills"/><g class="errorbars"/><g class="lines"><path class="js-line" d="M463.62,173.26L463.45,173.26L463.45,172.52L463.45,172.37L462.75,130.58L462.69,128.71L461.34,72.2L461.44,66.43L462.85,44.78L462.9,44.28L465.74,27.42L465.8,27.17L470.42,11.65L470.48,11.5L470.82,10.61" style="vector-effect: non-scaling-stroke; fill: none; stroke: rgb(0, 154, 250); stroke-opacity: 1; stroke-width: 1.4px; opacity: 1;"/></g><g class="points"/><g class="text"/></g><g class="trace scatter tracecc35f6" style="stroke-miterlimit: 2; opacity: 1;"><g class="fills"/><g class="errorbars"/><g class="lines"><path class="js-line" d="M463.62,173.26L463.45,173.26L463.45,174.01L463.45,174.16L462.75,217.58L462.69,219.6L461.34,283.95L461.44,290.88L462.85,317.47L462.9,318.09L465.74,339.34L465.8,339.65L470.31,359.13L470.37,359.33L470.82,360.86" style="vector-effect: non-scaling-stroke; fill: none; stroke: rgb(112, 112, 112); stroke-opacity: 1; stroke-width: 1.4px; opacity: 1;"/></g><g class="points"/><g class="text"/></g><g class="trace scatter trace0e366d" style="stroke-miterlimit: 2; opacity: 1;"><g class="fills"/><g class="errorbars"/><g class="lines"><path class="js-line" d="M461.35,173.26L459.06,173.26L468.57,173.26" style="vector-effect: non-scaling-stroke; fill: none; stroke: rgb(33, 171, 116); stroke-opacity: 1; stroke-width: 1.4px; opacity: 1;"/></g><g class="points"/><g class="text"/></g><g class="trace scatter trace2922c3" style="stroke-miterlimit: 2; opacity: 1;"><g class="fills"/><g class="errorbars"/><g class="lines"><path class="js-line" d="M461.35,173.26L461.18,173.26L461.18,174.01L461.18,174.16L460.48,217.63L460.42,219.66L459.09,284.94L459.21,292.1L460.6,317.66L460.66,318.28L463.44,339.15L463.5,339.46L467.73,358.06L467.79,358.26L468.57,360.98" style="vector-effect: non-scaling-stroke; fill: none; stroke: rgb(186, 48, 48); stroke-opacity: 1; stroke-width: 1.4px; opacity: 1;"/></g><g class="points"/><g class="text"/></g><g class="trace scatter tracea5d57a" style="stroke-miterlimit: 2; opacity: 1;"><g class="fills"/><g class="errorbars"/><g class="lines"><path class="js-line" d="M461.35,173.26L461.18,173.26L461.18,172.52L461.18,172.37L460.48,130.53L460.42,128.65L459.09,71.37L459.21,65.43L460.6,44.63L460.66,44.13L463.5,27.32L463.56,27.07L466.6,16.06L466.66,15.89L468.57,10.51" style="vector-effect: non-scaling-stroke; fill: none; stroke: rgb(148, 103, 189); stroke-opacity: 1; stroke-width: 1.4px; opacity: 1;"/></g><g class="points"/><g class="text"/></g><g class="trace scatter trace5c19ba" style="stroke-miterlimit: 2; opacity: 1;"><g class="fills"/><g class="errorbars"/><g class="lines"><path class="js-line" d="M15.13,42.08L49.92,40.12L67.31,40.58L84.7,42.57L102.09,37.89L119.48,42.97L136.88,41.32L154.27,44.29L171.66,41.61L189.05,44.69L206.44,50.79L223.84,47.83L241.23,46.8L276.01,48.12L293.41,55.55L310.8,56.18L328.19,55.07L345.58,51.4L362.97,54.11L380.37,64.57L397.76,65.45L415.15,65.28L432.54,68.64L449.93,60.37L467.33,90.68L484.72,88.93L502.11,85.25L519.5,124.1" style="vector-effect: non-scaling-stroke; fill: none; stroke: rgb(215, 114, 85); stroke-opacity: 1; stroke-width: 1.4px; opacity: 1;"/></g><g class="points"/><g class="text"/></g><g class="trace scatter tracef34348" style="stroke-miterlimit: 2; opacity: 1;"><g class="fills"/><g class="errorbars"/><g class="lines"/><g class="points"><path class="point" transform="translate(460.52,82.53)" d="M4,0A4,4 0 1,1 0,-4A4,4 0 0,1 4,0Z" style="opacity: 1; stroke-width: 0px; fill: rgb(0, 154, 250); fill-opacity: 1;"/></g><g class="text"/></g></g></g><g class="overplot"/><path class="xlines-above crisp" d="M60.757072032662585,435.8280839895013H597.3910761154855M60.757072032662585,63.33858267716535H597.3910761154855" style="fill: none; stroke-width: 1px; stroke: rgb(0, 0, 0); stroke-opacity: 1;"/><path class="ylines-above crisp" d="M61.257072032662585,63.83858267716535V435.3280839895013M596.8910761154855,63.83858267716535V435.3280839895013" style="fill: none; stroke-width: 1px; stroke: rgb(0, 0, 0); stroke-opacity: 1;"/><g class="overlines-above"/><g class="xaxislayer-above"><path class="xtick ticks crisp" d="M0,435.3280839895013v-5" transform="translate(76.88707203266259,0)" style="stroke: rgb(0, 0, 0); stroke-opacity: 1; stroke-width: 1px;"/><path class="xtick ticks crisp" d="M0,435.3280839895013v-5" transform="translate(188.96707203266257,0)" style="stroke: rgb(0, 0, 0); stroke-opacity: 1; stroke-width: 1px;"/><path class="xtick ticks crisp" d="M0,435.3280839895013v-5" transform="translate(301.0570720326626,0)" style="stroke: rgb(0, 0, 0); stroke-opacity: 1; stroke-width: 1px;"/><path class="xtick ticks crisp" d="M0,435.3280839895013v-5" transform="translate(413.13707203266256,0)" style="stroke: rgb(0, 0, 0); stroke-opacity: 1; stroke-width: 1px;"/><path class="xtick ticks crisp" d="M0,435.3280839895013v-5" transform="translate(525.2170720326626,0)" style="stroke: rgb(0, 0, 0); stroke-opacity: 1; stroke-width: 1px;"/><g class="xtick"><text text-anchor="middle" x="0" y="449.5280839895013" transform="translate(76.88707203266259,0)" style="font-family: 'Computer Modern'; font-size: 11px; fill: rgb(0, 0, 0); fill-opacity: 1; white-space: pre;">7.0</text></g><g class="xtick"><text text-anchor="middle" x="0" y="449.5280839895013" transform="translate(188.96707203266257,0)" style="font-family: 'Computer Modern'; font-size: 11px; fill: rgb(0, 0, 0); fill-opacity: 1; white-space: pre;">7.2</text></g><g class="xtick"><text text-anchor="middle" x="0" y="449.5280839895013" transform="translate(301.0570720326626,0)" style="font-family: 'Computer Modern'; font-size: 11px; fill: rgb(0, 0, 0); fill-opacity: 1; white-space: pre;">7.4</text></g><g class="xtick"><text text-anchor="middle" x="0" y="449.5280839895013" transform="translate(413.13707203266256,0)" style="font-family: 'Computer Modern'; font-size: 11px; fill: rgb(0, 0, 0); fill-opacity: 1; white-space: pre;">7.6</text></g><g class="xtick"><text text-anchor="middle" x="0" y="449.5280839895013" transform="translate(525.2170720326626,0)" style="font-family: 'Computer Modern'; font-size: 11px; fill: rgb(0, 0, 0); fill-opacity: 1; white-space: pre;">7.8</text></g></g><g class="yaxislayer-above"><path class="ytick ticks crisp" d="M61.757072032662585,0h5" transform="translate(0,423.0485826771653)" style="stroke: rgb(0, 0, 0); stroke-opacity: 1; stroke-width: 1px;"/><path class="ytick ticks crisp" d="M61.757072032662585,0h5" transform="translate(0,321.27858267716533)" style="stroke: rgb(0, 0, 0); stroke-opacity: 1; stroke-width: 1px;"/><path class="ytick ticks crisp" d="M61.757072032662585,0h5" transform="translate(0,219.50858267716535)" style="stroke: rgb(0, 0, 0); stroke-opacity: 1; stroke-width: 1px;"/><path class="ytick ticks crisp" d="M61.757072032662585,0h5" transform="translate(0,117.74858267716534)" style="stroke: rgb(0, 0, 0); stroke-opacity: 1; stroke-width: 1px;"/><g class="ytick"><text text-anchor="end" x="58.55707203266258" y="3.8499999999999996" transform="translate(0,423.0485826771653)" style="font-family: 'Computer Modern'; font-size: 11px; fill: rgb(0, 0, 0); fill-opacity: 1; white-space: pre;">2</text></g><g class="ytick"><text text-anchor="end" x="58.55707203266258" y="3.8499999999999996" transform="translate(0,321.27858267716533)" style="font-family: 'Computer Modern'; font-size: 11px; fill: rgb(0, 0, 0); fill-opacity: 1; white-space: pre;">3</text></g><g class="ytick"><text text-anchor="end" x="58.55707203266258" y="3.8499999999999996" transform="translate(0,219.50858267716535)" style="font-family: 'Computer Modern'; font-size: 11px; fill: rgb(0, 0, 0); fill-opacity: 1; white-space: pre;">4</text></g><g class="ytick"><text text-anchor="end" x="58.55707203266258" y="3.8499999999999996" transform="translate(0,117.74858267716534)" style="font-family: 'Computer Modern'; font-size: 11px; fill: rgb(0, 0, 0); fill-opacity: 1; white-space: pre;">5</text></g></g><g class="overaxes-above"/></g></g><g class="polarlayer"/><g class="ternarylayer"/><g class="geolayer"/><g class="funnelarealayer"/><g class="pielayer"/><g class="treemaplayer"/><g class="sunburstlayer"/><g class="glimages"/><defs id="topdefs-61cb8e"><g class="clips"/><clipPath id="legend61cb8e"><rect width="58" height="162" x="1" y="1"/></clipPath></defs><g class="layer-above"><g class="imagelayer"/><g class="shapelayer"/></g><g class="infolayer"><g class="legend" pointer-events="all" transform="translate(627.5,60)"><rect class="bg" shape-rendering="crispEdges" width="59" height="163" x="0.5" y="0.5" style="stroke: rgb(0, 0, 0); stroke-opacity: 1; fill: rgb(255, 255, 255); fill-opacity: 1; stroke-width: 1px;"/><g class="scrollbox" transform="" clip-path="url('#legend61cb8e')"><g class="groups"><g class="traces" transform="translate(1,15.5)" style="opacity: 1;"><text class="legendtext" text-anchor="start" x="40" y="4.29" style="font-family: 'Computer Modern'; font-size: 11px; fill: rgb(0, 0, 0); fill-opacity: 1; white-space: pre;">y1</text><g class="layers" style="opacity: 1;"><g class="legendfill"/><g class="legendlines"/><g class="legendsymbols"><g class="legendpoints"><path class="scatterpts" transform="translate(20,0)" d="M4,0A4,4 0 1,1 0,-4A4,4 0 0,1 4,0Z" style="opacity: 1; stroke-width: 0px; fill: rgb(215, 114, 85); fill-opacity: 1;"/></g></g></g><rect class="legendtoggle" x="0" y="-9.5" width="52.5" height="19" style="fill: rgb(0, 0, 0); fill-opacity: 0;"/></g><g class="traces" transform="translate(1,34.5)" style="opacity: 1;"><text class="legendtext" text-anchor="start" x="40" y="4.29" style="font-family: 'Computer Modern'; font-size: 11px; fill: rgb(0, 0, 0); fill-opacity: 1; white-space: pre;">y2</text><g class="layers" style="opacity: 1;"><g class="legendfill"/><g class="legendlines"><path class="js-line" d="M5,0h30" style="fill: none; stroke: rgb(0, 154, 250); stroke-opacity: 1; stroke-width: 1.4px;"/></g><g class="legendsymbols"><g class="legendpoints"/></g></g><rect class="legendtoggle" x="0" y="-9.5" width="52.5" height="19" style="fill: rgb(0, 0, 0); fill-opacity: 0;"/></g><g class="traces" transform="translate(1,53.5)" style="opacity: 1;"><text class="legendtext" text-anchor="start" x="40" y="4.29" style="font-family: 'Computer Modern'; font-size: 11px; fill: rgb(0, 0, 0); fill-opacity: 1; white-space: pre;">y3</text><g class="layers" style="opacity: 1;"><g class="legendfill"/><g class="legendlines"><path class="js-line" d="M5,0h30" style="fill: none; stroke: rgb(112, 112, 112); stroke-opacity: 1; stroke-width: 1.4px;"/></g><g class="legendsymbols"><g class="legendpoints"/></g></g><rect class="legendtoggle" x="0" y="-9.5" width="52.5" height="19" style="fill: rgb(0, 0, 0); fill-opacity: 0;"/></g><g class="traces" transform="translate(1,72.5)" style="opacity: 1;"><text class="legendtext" text-anchor="start" x="40" y="4.29" style="font-family: 'Computer Modern'; font-size: 11px; fill: rgb(0, 0, 0); fill-opacity: 1; white-space: pre;">y4</text><g class="layers" style="opacity: 1;"><g class="legendfill"/><g class="legendlines"><path class="js-line" d="M5,0h30" style="fill: none; stroke: rgb(33, 171, 116); stroke-opacity: 1; stroke-width: 1.4px;"/></g><g class="legendsymbols"><g class="legendpoints"/></g></g><rect class="legendtoggle" x="0" y="-9.5" width="52.5" height="19" style="fill: rgb(0, 0, 0); fill-opacity: 0;"/></g><g class="traces" transform="translate(1,91.5)" style="opacity: 1;"><text class="legendtext" text-anchor="start" x="40" y="4.29" style="font-family: 'Computer Modern'; font-size: 11px; fill: rgb(0, 0, 0); fill-opacity: 1; white-space: pre;">y5</text><g class="layers" style="opacity: 1;"><g class="legendfill"/><g class="legendlines"><path class="js-line" d="M5,0h30" style="fill: none; stroke: rgb(186, 48, 48); stroke-opacity: 1; stroke-width: 1.4px;"/></g><g class="legendsymbols"><g class="legendpoints"/></g></g><rect class="legendtoggle" x="0" y="-9.5" width="52.5" height="19" style="fill: rgb(0, 0, 0); fill-opacity: 0;"/></g><g class="traces" transform="translate(1,110.5)" style="opacity: 1;"><text class="legendtext" text-anchor="start" x="40" y="4.29" style="font-family: 'Computer Modern'; font-size: 11px; fill: rgb(0, 0, 0); fill-opacity: 1; white-space: pre;">y6</text><g class="layers" style="opacity: 1;"><g class="legendfill"/><g class="legendlines"><path class="js-line" d="M5,0h30" style="fill: none; stroke: rgb(148, 103, 189); stroke-opacity: 1; stroke-width: 1.4px;"/></g><g class="legendsymbols"><g class="legendpoints"/></g></g><rect class="legendtoggle" x="0" y="-9.5" width="52.5" height="19" style="fill: rgb(0, 0, 0); fill-opacity: 0;"/></g><g class="traces" transform="translate(1,129.5)" style="opacity: 1;"><text class="legendtext" text-anchor="start" x="40" y="4.29" style="font-family: 'Computer Modern'; font-size: 11px; fill: rgb(0, 0, 0); fill-opacity: 1; white-space: pre;">y7</text><g class="layers" style="opacity: 1;"><g class="legendfill"/><g class="legendlines"><path class="js-line" d="M5,0h30" style="fill: none; stroke: rgb(215, 114, 85); stroke-opacity: 1; stroke-width: 1.4px;"/></g><g class="legendsymbols"><g class="legendpoints"/></g></g><rect class="legendtoggle" x="0" y="-9.5" width="52.5" height="19" style="fill: rgb(0, 0, 0); fill-opacity: 0;"/></g><g class="traces" transform="translate(1,148.5)" style="opacity: 1;"><text class="legendtext" text-anchor="start" x="40" y="4.29" style="font-family: 'Computer Modern'; font-size: 11px; fill: rgb(0, 0, 0); fill-opacity: 1; white-space: pre;">y8</text><g class="layers" style="opacity: 1;"><g class="legendfill"/><g class="legendlines"/><g class="legendsymbols"><g class="legendpoints"><path class="scatterpts" transform="translate(20,0)" d="M4,0A4,4 0 1,1 0,-4A4,4 0 0,1 4,0Z" style="opacity: 1; stroke-width: 0px; fill: rgb(0, 154, 250); fill-opacity: 1;"/></g></g></g><rect class="legendtoggle" x="0" y="-9.5" width="52.5" height="19" style="fill: rgb(0, 0, 0); fill-opacity: 0;"/></g></g></g><rect class="scrollbar" rx="20" ry="3" width="0" height="0" x="0" y="0" style="fill: rgb(128, 139, 164); fill-opacity: 1;"/></g><g class="g-gtitle"/><g class="g-xtitle"/><g class="g-ytitle"/></g></svg>